<svg width="787.638550" height="518.850708" viewBox="0 0 787.639 518.851" fill="none" xmlns="http://www.w3.org/2000/svg" xmlns:xlink="http://www.w3.org/1999/xlink">
	<desc>
			Created with Pixso.
	</desc>
	<defs/>
	<g opacity="0.420000"/>
	<g opacity="0.150000">
		<path id="Vector" d="M659.1 499.36L472.81 499.36C471.76 499.36 470.71 499.15 469.73 498.75C468.76 498.35 467.87 497.76 467.12 497.01C466.37 496.26 465.78 495.38 465.38 494.4C464.97 493.42 464.76 492.38 464.76 491.32C464.77 489.19 465.62 487.15 467.13 485.64C468.64 484.13 470.68 483.29 472.81 483.29L659.1 483.29C661.23 483.29 663.27 484.13 664.78 485.64C666.29 487.15 667.13 489.19 667.13 491.32C667.13 493.45 666.29 495.5 664.78 497.01C663.27 498.51 661.23 499.36 659.1 499.36Z" fill="#292929" fill-opacity="1.000000" fill-rule="nonzero"/>
	</g>
	<g opacity="0.150000">
		<path id="Vector" d="M399.1 500.71L440.64 500.71C443.6 500.71 446 503.11 446 506.07C446 509.03 443.6 511.43 440.64 511.43L399.1 511.43C396.14 511.43 393.74 509.03 393.74 506.07C393.74 503.11 396.14 500.71 399.1 500.71Z" fill="#292929" fill-opacity="1.000000" fill-rule="evenodd"/>
	</g>
	<path id="Vector" d="M692.73 417.41C686.35 404.39 683.22 390.02 683.63 375.53C683.84 368.49 684.87 361.42 683.99 354.42C682.12 339.62 671.39 326.78 657.98 320.23C644.56 313.68 628.87 312.87 614.22 315.72C590.48 320.33 571.43 335.18 569.19 360.26C567.91 374.64 570.68 389.15 569.41 403.53C569.1 407.06 568.46 410.55 567.51 413.97L560.33 414.49L505.89 418.4C493.92 419.28 481.85 419.56 473.37 428.7C464.34 438.48 458.52 450.78 456.68 463.96C455.32 473.87 456.83 485.1 464.34 491.69C464.95 492.23 465.6 492.73 466.26 493.19L648.44 493.19C661.01 493.3 673.22 488.99 682.92 480.99C683.51 480.5 684.08 480.01 684.64 479.49C702.75 463.01 702.87 438 692.73 417.41Z" fill="#FFFFFF" fill-opacity="1.000000" fill-rule="nonzero"/>
	<path id="Vector" d="M683.63 375.53C683.84 368.49 684.87 361.42 683.99 354.42C682.12 339.62 671.39 326.78 657.98 320.23C644.56 313.68 628.87 312.87 614.22 315.72C590.48 320.33 571.43 335.18 569.19 360.26C567.91 374.64 570.68 389.15 569.41 403.53C569.1 407.06 568.46 410.55 567.51 413.97L560.33 414.49L505.89 418.4C493.92 419.28 481.85 419.56 473.37 428.7C464.34 438.48 458.52 450.78 456.68 463.96C455.32 473.87 456.83 485.1 464.34 491.69C464.95 492.23 465.6 492.73 466.26 493.19L648.44 493.19C661.01 493.3 673.22 488.99 682.92 480.99C683.51 480.5 684.08 480.01 684.64 479.49C702.75 463.01 702.87 438 692.73 417.41C686.35 404.39 683.22 390.02 683.63 375.53Z" stroke="#18216D" stroke-opacity="1.000000" stroke-width="1.000000"/>
	<path id="Vector" d="M591.34 402.36C586.86 398.06 582.06 394.05 577.84 389.49C572.52 383.73 569.5 376.85 566.27 369.78C562.82 362.23 560.06 354.12 560.28 345.7C560.79 335.02 565.47 324.97 573.32 317.71C577.74 313.51 584.53 309.94 585.5 303.59C586.44 297.47 584.96 290.52 588.65 285.07C593.86 277.34 608.35 284.53 612.81 289.74C618.67 296.56 618.03 307.92 626.08 313.05C629.12 314.99 632.9 315.44 636.21 316.72C639.38 317.95 642.21 319.92 644.46 322.46C646.72 325 648.35 328.03 649.2 331.32C650.76 337.47 650.71 344.05 655.43 348.83C660.39 353.85 664.98 358.15 667.64 365C669.49 370.31 670.61 375.85 670.98 381.46C672.17 394.91 662.48 406.65 651.05 413.01C642.26 417.82 632.23 419.89 622.26 418.95C613.96 418.2 603.15 415.91 597.83 409.3C595.82 406.85 593.65 404.53 591.34 402.36Z" fill="#18216D" fill-opacity="1.000000" fill-rule="nonzero"/>
	<path id="Vector" d="M576.46 358.05C573.59 366.2 568.59 373.43 561.99 379C555.39 384.57 547.42 388.28 538.91 389.75C540.76 393.19 542.14 396.86 543 400.66C554.68 400.81 566.9 397.55 575.21 389.35C583.52 381.15 586.82 367.38 580.9 357.31C580.17 356.04 576.93 356.7 576.46 358.05Z" fill="#FFFFFF" fill-opacity="1.000000" fill-rule="nonzero"/>
	<path id="Vector" d="M561.99 379C555.39 384.57 547.42 388.28 538.91 389.75C540.76 393.19 542.14 396.86 543 400.66C554.68 400.81 566.9 397.55 575.21 389.35C583.52 381.15 586.82 367.38 580.9 357.31C580.17 356.04 576.93 356.7 576.46 358.05C573.59 366.2 568.59 373.43 561.99 379Z" stroke="#18216D" stroke-opacity="1.000000" stroke-width="1.000000"/>
	<path id="Vector" d="M570.17 351.27C572.14 345.95 575.63 340.76 578.17 335.9L582.53 327.46C583.5 325.59 584.66 321.56 586.83 320.74C588.59 320.09 590.68 321.6 592.29 322.19C594.64 323.04 597.07 323.68 599.43 324.51C604.11 326.19 608.77 328.36 612.2 332.07C614.06 333.96 615.51 336.21 616.47 338.68C617.43 341.16 617.87 343.8 617.77 346.45C617.53 349.51 616.21 352.37 615.5 355.36C614.8 358.88 614.55 362.48 614.78 366.06C615.05 377.1 615.9 388.12 617.33 399.07C617.75 400.97 617.66 402.94 617.08 404.8C615.2 409.27 603.33 408.13 599.1 408.51C592.34 409.11 584.57 410.72 578.2 407.65C577.35 400.67 576.94 393.65 576.98 386.62C576.98 380.77 578.63 374.86 574.93 369.83C571.7 365.45 567.93 361.54 568.94 355.69C569.21 354.18 569.63 352.7 570.17 351.27Z" fill="#005FEC" fill-opacity="1.000000" fill-rule="nonzero"/>
	<path id="Vector" d="M584.94 318.52C585.09 316.7 585.09 314.88 584.94 313.06C584.77 311.57 583.69 310.96 582.57 310.03C577.78 306.1 576.83 299.91 578.34 294.18C578.53 293.57 578.66 292.94 578.71 292.31C578.72 291.71 578.68 291.12 578.59 290.53C578.35 288.28 578.94 286.02 580.24 284.16C583.16 280.22 590.15 279.97 594.04 282.51C599.33 285.94 600.05 293.25 600.25 299.55C600.4 304.47 600.53 309.36 600.68 314.28C600.83 319.54 601.26 326.17 595.76 328.96C593.83 329.91 591.62 330.13 589.55 329.57C588.31 329.27 587.19 328.62 586.31 327.69C584.24 325.3 584.78 321.44 584.94 318.52Z" fill="#FFFFFF" fill-opacity="1.000000" fill-rule="nonzero"/>
	<path id="Vector" d="M584.94 313.06C584.77 311.57 583.69 310.96 582.57 310.03C577.78 306.1 576.83 299.91 578.34 294.18C578.53 293.57 578.66 292.94 578.71 292.31C578.72 291.71 578.68 291.12 578.59 290.53C578.35 288.28 578.94 286.02 580.24 284.16C583.16 280.22 590.15 279.97 594.04 282.51C599.33 285.94 600.05 293.25 600.25 299.55C600.4 304.47 600.53 309.36 600.68 314.28C600.83 319.54 601.26 326.17 595.76 328.96C593.83 329.91 591.62 330.13 589.55 329.57C588.31 329.27 587.19 328.62 586.31 327.69C584.24 325.3 584.78 321.44 584.94 318.52C585.09 316.7 585.09 314.88 584.94 313.06Z" stroke="#18216D" stroke-opacity="1.000000" stroke-width="1.000000"/>
	<path id="Vector" d="M598.03 307.37C595.13 310.16 591.34 311.86 587.32 312.19C590.94 313.23 594.74 313.39 598.43 312.65C598.18 310.9 598.04 309.14 598.03 307.37Z" fill="#18216D" fill-opacity="1.000000" fill-rule="nonzero"/>
	<path id="Vector" d="M453.31 484.72L461.05 476.75C463.93 473.96 466.55 470.91 468.88 467.65C470.78 464.79 472.23 461.66 473.17 458.37C474 455.45 474.38 452.16 472.92 449.51C472.01 448.07 470.7 446.92 469.15 446.19C467.6 445.47 465.87 445.2 464.18 445.42C460.79 445.93 457.63 447.46 455.12 449.79C449.36 454.64 445.78 460.84 442.4 467.42C438.55 474.89 434.55 482.29 430.4 489.62C429.6 490.98 427.68 493.71 427.95 495.37C428.22 497.04 430.68 497.65 432.53 497.82C436.8 498.21 440.9 497.48 443.95 494.34C447.01 491.2 450.19 487.99 453.31 484.72Z" fill="#005FEC" fill-opacity="1.000000" fill-rule="nonzero"/>
	<path id="Vector" d="M431.61 486.81C431.26 486.58 430.87 486.42 430.46 486.35C430.05 486.28 429.64 486.29 429.23 486.38C428.48 486.6 427.77 486.97 427.16 487.46C421.22 491.55 414.62 494.58 407.64 496.4C404.18 497.3 400.37 498.06 398.09 500.79C396.29 502.92 397.97 504.89 400.07 505.85C403.37 507.1 406.95 507.42 410.41 506.75C418.75 505.46 427.09 507.68 435.44 506.75C441.72 506.06 443.48 501.41 445.17 495.95C445.43 495.12 445.74 494.28 445.97 493.45C443.97 492.66 441.33 492.99 439.15 492.18C437.26 491.54 435.54 490.48 434.1 489.1C433.36 488.24 432.52 487.48 431.61 486.81Z" fill="#18216D" fill-opacity="1.000000" fill-rule="nonzero"/>
	<path id="Vector" d="M618.58 406.34C617.79 403.07 616.62 399.69 614.18 397.58C611.73 395.46 607.72 395.14 605.7 397.72C605.01 398.59 604.61 399.69 603.92 400.57C601.83 403.16 596.59 401.41 593.87 401.35C589.64 401.24 585.41 401.48 581.2 401.77C570.91 402.45 560.63 403.35 550.36 404.25L521.58 406.78C516.7 407.2 511.8 407.83 506.9 408.14C502.67 408.37 499.19 407.39 495.03 409.34C491.62 411.15 488.46 413.42 485.65 416.07C481.27 419.82 476.84 423.51 472.5 427.31C470.02 429.48 467.57 431.69 465.19 433.97C458.51 440.36 452.37 447.28 446.23 454.17C441.07 459.99 435.91 465.81 430.73 471.62C440.45 479.39 449.65 487.79 458.27 496.77C459.84 495.4 461.35 493.66 462.36 492.67C464.65 490.63 466.86 488.51 469.02 486.34C470.19 485.31 471.09 484.01 471.65 482.56C471.99 481.39 471.89 480.12 472.16 478.92C473 475 477.22 473.04 480.26 470.44C484.64 466.71 485.31 461.47 488.12 456.8C490.62 452.62 495.71 450.8 499.14 447.34C502.33 444.11 503.91 439.62 506.64 435.98C508.86 433 514.34 428.87 518.09 431.62C521.08 433.81 520.64 438.8 524.24 440.6C526.71 441.83 529.7 441.76 532.33 442.23C541.39 443.84 550.56 444.74 559.71 445.64L575.33 447.17C584.01 448.01 592.92 448.84 601.32 446.35C604.82 445.38 608.08 443.71 610.91 441.45C613.74 439.18 616.09 436.37 617.81 433.18C618.61 431.57 619.2 429.86 619.58 428.1C621.23 421.13 620.14 412.86 618.58 406.34Z" fill="#FFFFFF" fill-opacity="1.000000" fill-rule="nonzero"/>
	<path id="Vector" d="M614.18 397.58C611.73 395.46 607.72 395.14 605.7 397.72C605.01 398.59 604.61 399.69 603.92 400.57C601.83 403.16 596.59 401.41 593.87 401.35C589.64 401.24 585.41 401.48 581.2 401.77C570.91 402.45 560.63 403.35 550.36 404.25L521.58 406.78C516.7 407.2 511.8 407.83 506.9 408.14C502.67 408.37 499.19 407.39 495.03 409.34C491.62 411.15 488.46 413.42 485.65 416.07C481.27 419.82 476.84 423.51 472.5 427.31C470.02 429.48 467.57 431.69 465.19 433.97C458.51 440.36 452.37 447.28 446.23 454.17C441.07 459.99 435.91 465.81 430.73 471.62C440.45 479.39 449.65 487.79 458.27 496.77C459.84 495.4 461.35 493.66 462.36 492.67C464.65 490.63 466.86 488.51 469.02 486.34C470.19 485.31 471.09 484.01 471.65 482.56C471.99 481.39 471.89 480.12 472.16 478.92C473 475 477.22 473.04 480.26 470.44C484.64 466.71 485.31 461.47 488.12 456.8C490.62 452.62 495.71 450.8 499.14 447.34C502.33 444.11 503.91 439.62 506.64 435.98C508.86 433 514.34 428.87 518.09 431.62C521.08 433.81 520.64 438.8 524.24 440.6C526.71 441.83 529.7 441.76 532.33 442.23C541.39 443.84 550.56 444.74 559.71 445.64L575.33 447.17C584.01 448.01 592.92 448.84 601.32 446.35C604.82 445.38 608.08 443.71 610.91 441.45C613.74 439.18 616.09 436.37 617.81 433.18C618.61 431.57 619.2 429.86 619.58 428.1C621.23 421.13 620.14 412.86 618.58 406.34C617.79 403.07 616.62 399.69 614.18 397.58Z" stroke="#18216D" stroke-opacity="1.000000" stroke-width="1.000000"/>
	<path id="Vector" d="M626.69 344.72C636.88 350.4 638.48 362.91 638.81 374.01C638.97 379.73 638.64 385.59 636.5 390.88C630.74 405.07 613.3 408.62 599.66 408.17C582.08 407.56 564.74 403.97 548.37 397.54C548.27 394.55 548.61 391.57 549.38 388.68C559.77 391.42 570.46 392.85 581.21 392.91C588.99 393.18 596.76 392.11 604.18 389.75C608.86 388.11 613.47 385.44 615.51 381.27C619.18 373.81 613.06 365.8 612.18 358.36C611.68 355.78 611.8 353.11 612.53 350.57C612.96 349.52 613.51 348.52 614.16 347.58C615 346.11 616.15 344.85 617.53 343.87C618.63 343.3 619.85 342.99 621.09 342.97C622.33 342.95 623.55 343.22 624.67 343.75C625.36 344.03 626.04 344.36 626.69 344.72Z" fill="#FFFFFF" fill-opacity="1.000000" fill-rule="nonzero"/>
	<path id="Vector" d="M638.81 374.01C638.97 379.73 638.64 385.59 636.5 390.88C630.74 405.07 613.3 408.62 599.66 408.17C582.08 407.56 564.74 403.97 548.37 397.54C548.27 394.55 548.61 391.57 549.38 388.68C559.77 391.42 570.46 392.85 581.21 392.91C588.99 393.18 596.76 392.11 604.18 389.75C608.86 388.11 613.47 385.44 615.51 381.27C619.18 373.81 613.06 365.8 612.18 358.36C611.68 355.78 611.8 353.11 612.53 350.57C612.96 349.52 613.51 348.52 614.16 347.58C615 346.11 616.15 344.85 617.53 343.87C618.63 343.3 619.85 342.99 621.09 342.97C622.33 342.95 623.55 343.22 624.67 343.75C625.36 344.03 626.04 344.36 626.69 344.72C636.88 350.4 638.48 362.91 638.81 374.01Z" stroke="#18216D" stroke-opacity="1.000000" stroke-width="1.000000"/>
	<path id="Vector" d="M494.89 406.9L566.71 406.9C567.18 406.89 567.65 406.76 568.07 406.53C570.05 405.4 569.07 402.87 566.71 402.87L494.89 402.87C494.41 402.88 493.94 403.01 493.53 403.24C491.51 404.36 492.48 406.9 494.89 406.9Z" fill="#18216D" fill-opacity="1.000000" fill-rule="nonzero"/>
	<path id="Vector" d="M494.4 407.08L562.54 407.08C562.73 407.07 562.92 407.02 563.08 406.92C563.24 406.82 563.37 406.68 563.46 406.51C563.55 406.35 563.59 406.16 563.58 405.97C563.57 405.78 563.51 405.6 563.4 405.44L540.21 371.33C540.11 371.19 539.98 371.07 539.83 370.99C539.68 370.92 539.52 370.88 539.35 370.88L471.16 370.88C470.97 370.88 470.79 370.93 470.63 371.02C470.46 371.12 470.33 371.26 470.24 371.43C470.15 371.6 470.11 371.78 470.12 371.97C470.13 372.16 470.2 372.34 470.3 372.5L493.5 406.61C493.6 406.76 493.73 406.88 493.89 406.96C494.05 407.04 494.22 407.08 494.4 407.08Z" fill="#18216D" fill-opacity="1.000000" fill-rule="nonzero"/>
	<path id="Vector" d="M585.52 288.43C587.51 287.88 589.62 287.93 591.57 288.6C593.77 289.42 595.68 290.89 597.03 292.81C598.68 295.16 598.87 297.17 599.13 299.99C599.7 306.44 600.28 312.89 600.87 319.34C600.9 320.39 601.14 321.43 601.6 322.38C602.4 323.54 603.6 324.36 604.97 324.71C606.13 325.15 607.37 325.33 608.61 325.26C609.84 325.18 611.05 324.85 612.16 324.29C613.19 323.6 614.07 322.7 614.72 321.64C615.38 320.58 615.8 319.4 615.96 318.17C616.27 315.7 616.22 313.2 615.8 310.74C614.89 302.95 614.44 295.81 611.22 288.53C608.64 282.67 602.21 279.36 595.91 278.31C590.29 277.39 584.53 277.9 579.16 279.81C577.38 280.33 575.77 281.31 574.48 282.65C572.56 284.91 572.76 287.52 575.62 288.32C577.54 289.01 579.59 289.31 581.63 289.2C582.94 289.01 584.24 288.76 585.52 288.43Z" fill="#18216D" fill-opacity="1.000000" fill-rule="nonzero"/>
	<path id="Vector" d="M595.7 296.96C595.93 296.47 596.26 296.04 596.66 295.68C597.06 295.32 597.53 295.05 598.04 294.88C598.55 294.7 599.09 294.63 599.62 294.67C600.16 294.71 600.68 294.86 601.16 295.1C603.33 296.47 602.95 299.55 601.16 301.07C600.76 301.43 600.29 301.7 599.77 301.84C599.25 301.98 598.7 301.99 598.17 301.88C597.65 301.76 597.16 301.52 596.75 301.17C596.33 300.82 596.01 300.38 595.81 299.88C595.68 299.47 595.64 299.03 595.7 298.6C595.54 298.35 595.45 298.07 595.45 297.78C595.45 297.49 595.54 297.2 595.7 296.96Z" fill="#FFFFFF" fill-opacity="1.000000" fill-rule="nonzero"/>
	<path id="Vector" d="M616.71 365.38L619.21 364.46C619.24 364.37 619.28 364.29 619.34 364.22C619.41 364.15 619.49 364.1 619.58 364.07C625.84 361.75 631.97 359.09 638.19 356.67C636.58 352.3 634.61 348.06 632.28 344.02C630.54 340.42 628.15 337.16 625.24 334.4C621.76 331.13 617.86 328.33 613.65 326.08C612.58 325.53 600.51 320.51 600.42 320.73C599.48 323.91 598.81 327.17 598.43 330.47C598.34 332.62 598.13 334.75 597.82 336.87C596.86 340.32 597.22 344 598.83 347.19C601.28 351.6 603.64 356.13 606.32 360.38L610.71 367.37C612.36 366.65 614.06 366.07 615.8 365.62L616.71 365.38Z" fill="#005FEC" fill-opacity="1.000000" fill-rule="nonzero"/>
	<path id="Vector" d="M581.73 304.72C582.42 305.33 583.3 305.66 584.22 305.66C585.14 305.66 586.02 305.33 586.71 304.72C587.01 304.44 586.94 303.96 586.98 303.55C587.02 303.14 586.72 302.69 586.31 302.72C586.19 302.73 586.07 302.76 585.96 302.83C584.7 303.36 582.97 304.17 581.73 304.72Z" fill="#18216D" fill-opacity="1.000000" fill-rule="nonzero"/>
	<path id="Vector" d="M516.96 385.22C516.54 384.96 516.09 384.79 515.61 384.71C515.13 384.63 514.64 384.64 514.17 384.75C513.7 384.86 513.25 385.06 512.86 385.34C512.46 385.62 512.13 385.97 511.87 386.38C511.62 386.79 511.44 387.25 511.36 387.73C511.28 388.21 511.29 388.7 511.4 389.17C511.51 389.64 511.71 390.09 511.99 390.48C512.27 390.87 512.63 391.21 513.04 391.47" stroke="#C9CDD1" stroke-opacity="1.000000" stroke-width="1.000000"/>
	<path id="Vector" d="M542.47 461.07C540.64 455.87 539.5 450.35 537.89 445.05C537.24 442.63 536.22 440.33 534.86 438.23C533.48 436.09 531.33 434.57 528.85 433.99C524.62 433.18 520.41 436.2 518.47 440.04C513.42 450.02 517.73 461.08 524.27 469.09C526.49 471.82 528.9 474.37 531.19 477.04C533.48 479.7 535.14 483.26 537.49 485.78C541.12 489.67 547.41 487.15 550.39 483.63C553.93 479.42 549.36 473.73 546.93 470.2C545.05 467.37 543.55 464.3 542.47 461.07Z" fill="#005FEC" fill-opacity="1.000000" fill-rule="nonzero"/>
	<path id="Vector" d="M549.17 475.9L548.5 476.37C544.98 478.76 541.29 480.9 537.48 482.79C536.56 483.22 535.75 483.86 535.13 484.66C534.15 486.14 535.21 487.2 535.42 488.66C536 493.15 535.61 497.72 534.26 502.05C532.89 506.14 527.82 511.89 529.1 516.46C529.93 519.47 534.18 519.02 536.54 518.37C539.97 517.26 542.87 514.9 544.65 511.76C546.48 508.75 547.81 505.43 549.42 502.29C550.91 499.39 552.66 496.62 554.64 494.02C555.65 492.85 556.51 491.56 557.21 490.18C557.8 488.69 557.96 487.07 557.68 485.5C557.4 483.93 556.69 482.47 555.63 481.28C554.51 480 553.69 478.47 552.61 477.19C551.15 475.36 550.67 474.93 549.17 475.9Z" fill="#18216D" fill-opacity="1.000000" fill-rule="nonzero"/>
	<path id="Vector" d="M500.1 439.57C500.68 441.07 500.96 442.64 501.47 444.16C502.42 446.83 503.67 449.37 505.19 451.75C508.69 457.73 512.19 463.7 515.7 469.67L520.95 478.62C521.19 479.01 521.58 479.85 522.06 480.83C531.56 475.27 540.84 469.36 549.91 463.09C547.86 459.75 545.54 456.53 545.06 452.68C544.82 450.74 545.06 448.75 544.85 446.8C544.27 442.09 540.9 438.31 538.09 434.52C533.07 427.69 529.5 419.9 525.22 412.55C524.72 411.68 524.2 410.82 523.67 409.96C520.78 405.05 517.16 400.62 512.93 396.82C510.77 395.04 508.45 393.47 506 392.14C503.94 390.95 502.42 389.24 500.2 388.33C490.54 384.36 482.92 392.16 482.62 401.97C482.42 408.92 485.53 415.52 488.97 421.55C491.33 425.72 493.87 429.76 496.61 433.67C498.01 435.49 499.18 437.47 500.1 439.57Z" fill="#FFFFFF" fill-opacity="1.000000" fill-rule="nonzero"/>
	<path id="Vector" d="M501.47 444.16C502.42 446.83 503.67 449.37 505.19 451.75C508.69 457.73 512.19 463.7 515.7 469.67L520.95 478.62C521.19 479.01 521.58 479.85 522.06 480.83C531.56 475.27 540.84 469.36 549.91 463.09C547.86 459.75 545.54 456.53 545.06 452.68C544.82 450.74 545.06 448.75 544.85 446.8C544.27 442.09 540.9 438.31 538.09 434.52C533.07 427.69 529.5 419.9 525.22 412.55C524.72 411.68 524.2 410.82 523.67 409.96C520.78 405.05 517.16 400.62 512.93 396.82C510.77 395.04 508.45 393.47 506 392.14C503.94 390.95 502.42 389.24 500.2 388.33C490.54 384.36 482.92 392.16 482.62 401.97C482.42 408.92 485.53 415.52 488.97 421.55C491.33 425.72 493.87 429.76 496.61 433.67C498.01 435.49 499.18 437.47 500.1 439.57C500.68 441.07 500.96 442.64 501.47 444.16Z" stroke="#18216D" stroke-opacity="1.000000" stroke-width="1.000000"/>
	<path id="Vector" d="M606.15 353.62C606.75 361.7 605.9 369.82 603.67 377.6C604.09 376.14 608.17 373.59 609.35 372.43C610.52 371.27 613.88 368.69 614.08 366.73C614.29 364.76 611.88 362.08 610.97 360.59C609.49 358.18 607.88 355.85 606.15 353.62Z" fill="#18216D" fill-opacity="1.000000" fill-rule="nonzero"/>
	<path id="Vector" d="M600.72 314.26C600.87 319.53 601.3 326.16 595.8 328.94C593.87 329.9 591.66 330.12 589.59 329.56" fill="#FFFFFF" fill-opacity="1.000000" fill-rule="nonzero"/>
	<path id="Vector" d="M600.72 314.26C600.87 319.53 601.3 326.16 595.8 328.94C593.87 329.9 591.66 330.12 589.59 329.56" stroke="#18216D" stroke-opacity="1.000000" stroke-width="1.000000"/>
	<path id="Vector" d="M594.2 448.11C606.24 446.16 617.82 453.46 629.98 454.4L594.2 448.11Z" fill="#FFFFFF" fill-opacity="1.000000" fill-rule="nonzero"/>
	<path id="Vector" d="M594.2 448.11C606.24 446.16 617.82 453.46 629.98 454.4" stroke="#18216D" stroke-opacity="1.000000" stroke-width="1.000000"/>
	<path id="Vector" d="M622.84 444.33C629.14 446.05 635.73 446.36 642.16 445.26L622.84 444.33Z" fill="#FFFFFF" fill-opacity="1.000000" fill-rule="nonzero"/>
	<path id="Vector" d="M622.84 444.33C629.14 446.05 635.73 446.36 642.16 445.26" stroke="#18216D" stroke-opacity="1.000000" stroke-width="1.000000"/>
	<path id="Vector" d="M647.03 402.61C648.31 413.25 645.37 423.97 638.85 432.47" stroke="#18216D" stroke-opacity="1.000000" stroke-width="1.000000"/>
	<path id="Vector" d="M468.98 485.54C468.54 482.49 468.19 474.62 464.48 473.47C455.85 470.81 461.28 491.72 462.05 494.42C462.11 494.67 462.22 494.9 462.38 495.1C462.53 495.31 462.73 495.48 462.95 495.61C463.26 496.38 463.72 497.08 464.31 497.66C464.9 498.24 465.61 498.69 466.39 498.99C466.74 499.09 467.11 499.09 467.46 499C467.81 498.9 468.12 498.72 468.38 498.46C468.61 498.23 468.81 497.98 468.98 497.71C469.21 497.53 469.39 497.3 469.51 497.04C469.63 496.77 469.68 496.48 469.66 496.19C469.67 496.16 469.67 496.12 469.66 496.08C470.48 492.85 469.36 488.18 468.98 485.54Z" fill="#18216D" fill-opacity="1.000000" fill-rule="nonzero"/>
	<path id="Vector" d="M449.47 466.32C446.56 466.49 443.53 469.93 441.62 471.78C438.75 474.62 436.22 477.76 434.06 481.17C433.91 481.39 433.81 481.64 433.76 481.91C433.71 482.17 433.72 482.44 433.79 482.7C433.86 482.96 433.99 483.2 434.16 483.41C434.33 483.62 434.54 483.78 434.78 483.9C435.49 486.07 438.09 486.41 440.24 485.89C443.56 484.95 446.47 482.95 448.53 480.19C450.42 477.8 452.78 474.63 453.25 471.55C453.61 469.09 452.3 466.16 449.47 466.32Z" fill="#18216D" fill-opacity="1.000000" fill-rule="nonzero"/>
	<path id="Vector" d="M474.26 450.47C469.24 450.8 459.88 450.85 457 455.93C456.73 456.37 456.55 456.87 456.47 457.39C456.39 457.9 456.42 458.43 456.54 458.94C456.67 459.45 456.9 459.93 457.21 460.34C457.52 460.76 457.91 461.12 458.36 461.38C461.09 463.29 464.63 462.49 467.57 461.67C468.01 461.56 468.39 461.31 468.65 460.95C470.94 460.44 473.15 459.59 475.19 458.44C477.14 457.35 479.69 455.71 479.4 453.21C479.12 450.71 476.36 450.33 474.26 450.47Z" fill="#18216D" fill-opacity="1.000000" fill-rule="nonzero"/>
	<path id="Vector" d="M477.32 433.07C475.71 428.69 472.1 425.09 468.39 422.44C468.18 422.27 467.92 422.15 467.66 422.1C467.39 422.04 467.11 422.05 466.84 422.12C466.58 422.19 466.33 422.33 466.13 422.51C465.92 422.69 465.76 422.92 465.66 423.18C464.92 422.98 464.13 422.99 463.4 423.22C462.66 423.45 462 423.88 461.5 424.46C458.85 427.35 460.25 432.65 462.07 435.61C464.08 438.83 469.32 442.43 473.26 441.89C477.55 441.29 478.6 436.55 477.32 433.07Z" fill="#18216D" fill-opacity="1.000000" fill-rule="nonzero"/>
	<path id="Vector" d="M442.71 450.25C442.31 450.11 441.87 450.11 441.47 450.25C441.04 450.16 440.59 450.16 440.15 450.27C439.72 450.38 439.32 450.58 438.98 450.87C438.64 451.15 438.37 451.51 438.19 451.92C438.01 452.32 437.92 452.77 437.94 453.21C437.94 455.74 439.79 458.38 441.61 460.03C443.71 461.91 446.36 463.06 449.17 463.31C449.71 463.3 450.23 463.09 450.61 462.71C450.99 462.32 451.21 461.8 451.21 461.26C451.16 458.76 450.3 456.34 448.77 454.36C447.24 452.38 445.12 450.94 442.71 450.25Z" fill="#18216D" fill-opacity="1.000000" fill-rule="nonzero"/>
	<path id="Vector" d="M499.82 446.09C498.97 444.72 498.56 443.21 497.18 442.36C496.42 441.92 495.53 441.73 494.65 441.81C493.77 441.9 492.94 442.26 492.27 442.84C489.28 445.05 487.6 449.36 487.1 452.92C486.69 455.84 486.55 460.7 490.2 461.59C492.86 462.23 494.52 460.29 495.66 458.08C496.59 456.91 497.33 455.6 497.85 454.19C498.55 452.45 498.99 450.61 499.13 448.74C499.37 448.62 499.57 448.45 499.73 448.25C499.9 448.05 500.01 447.82 500.08 447.57C500.14 447.32 500.15 447.05 500.11 446.8C500.06 446.54 499.96 446.3 499.82 446.09Z" fill="#18216D" fill-opacity="1.000000" fill-rule="nonzero"/>
	<path id="Vector" d="M573.32 436.37C570.59 433.1 566.16 437.04 563.91 438.9C562.06 440.44 560.36 442.15 558.83 444C557.84 445.22 555.99 446.92 556.21 448.64C556.21 448.8 556.28 448.97 556.32 449.13C556.21 449.53 556.13 449.94 556.09 450.36C556.1 450.9 556.31 451.42 556.7 451.8C557.08 452.18 557.59 452.4 558.14 452.41C562.33 452.41 566.32 448.75 569.16 445.99C571.26 443.95 575.97 439.59 573.32 436.37Z" fill="#18216D" fill-opacity="1.000000" fill-rule="nonzero"/>
	<path id="Vector" d="M556.87 419.4C554.22 417.23 550.41 415.4 546.91 415.92C542.81 416.52 541.71 419.94 543.3 423.46C543.63 424.16 544.01 424.83 544.45 425.46C544.49 425.54 544.52 425.63 544.55 425.72C545.26 427.46 546.37 429.02 547.79 430.26C549.21 431.5 550.9 432.4 552.73 432.87C555.46 433.56 562.03 433.56 562.64 429.76C563.25 425.95 559.6 421.51 556.87 419.4Z" fill="#18216D" fill-opacity="1.000000" fill-rule="nonzero"/>
	<path id="Vector" d="M594.19 414.73C592.59 410.77 587.19 410.17 583.63 410.56C580.53 410.9 574.66 411.36 572.42 414.19C570.76 415.55 569.5 417.57 570.88 419.58C572.61 422.09 577.81 422.2 580.5 422.3C583.27 422.44 586.03 421.86 588.51 420.61C591.47 419.89 595.55 418.1 594.19 414.73Z" fill="#18216D" fill-opacity="1.000000" fill-rule="nonzero"/>
	<path id="Vector" d="M595.78 432.36C592.95 429.2 587.4 428.65 585.36 432.99C584.14 435.58 584.8 438.45 586.07 441.18C586.59 443.41 587.79 445.42 589.49 446.95L590.08 447.82C590.27 448.1 590.52 448.33 590.82 448.5C591.12 448.66 591.45 448.75 591.78 448.76C592.12 448.77 592.46 448.7 592.77 448.56C593.07 448.41 593.34 448.2 593.55 447.93C594.72 447.84 595.85 447.47 596.84 446.84C597.83 446.21 598.65 445.35 599.24 444.33C600.89 440.93 598.12 434.95 595.78 432.36Z" fill="#18216D" fill-opacity="1.000000" fill-rule="nonzero"/>
	<path id="Vector" d="M624.3 422.58C624.35 422.35 624.35 422.12 624.3 421.9C624.25 421.67 624.15 421.46 624.01 421.28C623.87 421.1 623.7 420.95 623.5 420.84C623.29 420.73 623.07 420.67 622.84 420.65C617.88 419.97 612.46 419.17 607.72 421.3C605.29 422.39 602.27 425.31 603.74 428.3C605.61 431.88 612.61 432.24 616.02 432.39C619.66 432.5 624.62 431.58 626.53 428.04C627.93 425.46 626.68 423.7 624.3 422.58Z" fill="#18216D" fill-opacity="1.000000" fill-rule="nonzero"/>
	<path id="Vector" d="M542.99 436.14C542.53 433.9 540.62 433.18 538.56 433.19C538.37 432.77 538.04 432.42 537.61 432.22C537.19 432.02 536.71 431.98 536.26 432.12C531.93 433.15 528.08 435.62 525.35 439.14C523.46 441.59 520.89 445.72 524.2 448.15C527.52 450.58 532.87 447.15 535.68 445.13C538.09 443.41 543.71 439.57 542.99 436.14Z" fill="#18216D" fill-opacity="1.000000" fill-rule="nonzero"/>
	<path id="Vector" d="M528.43 460.39C521.29 461.25 515.62 469.61 511.7 474.83C511.46 475.11 511.33 475.47 511.33 475.85C511.33 476.22 511.46 476.59 511.7 476.87C511.52 477.33 511.44 477.82 511.45 478.31C511.47 478.81 511.58 479.29 511.78 479.74C514.66 485.84 525.05 475.4 527.31 472.91C529.29 470.79 532.51 467.46 532.96 464.5C533.41 461.53 531.02 460.07 528.43 460.39Z" fill="#18216D" fill-opacity="1.000000" fill-rule="nonzero"/>
	<path id="Vector" d="M514.38 434.78C514.28 434.48 514.13 434.2 513.92 433.97C513.71 433.74 513.45 433.56 513.16 433.45C512.87 433.33 512.56 433.28 512.25 433.29C511.94 433.31 511.63 433.4 511.36 433.55C504.66 437.74 503.99 448.41 504.4 455.48C504.41 455.9 504.56 456.3 504.82 456.64C505.07 456.97 505.43 457.21 505.83 457.33C506.04 458.1 506.51 458.77 507.16 459.24C507.81 459.7 508.6 459.92 509.4 459.86C513.49 459.75 515.07 453.37 515.71 450.3C516.81 445.11 516.34 439.71 514.38 434.78Z" fill="#18216D" fill-opacity="1.000000" fill-rule="nonzero"/>
	<path id="Vector" d="M531.39 409.44C531.3 409.02 531.06 408.65 530.71 408.4C530.36 408.14 529.94 408.03 529.51 408.07L529.26 408.07C525.53 406.45 521.38 405.99 517.38 406.78C512.7 406.78 506.97 408.62 507.14 413.82C507.36 420.29 520.31 417.91 524.11 417.17C527.27 416.66 535.95 413.12 531.39 409.44Z" fill="#18216D" fill-opacity="1.000000" fill-rule="nonzero"/>
	<path id="Vector" d="M500.6 418.29C500.13 418.46 499.67 418.66 499.23 418.84C498.2 419.12 497.23 419.58 496.37 420.2C494.79 421.02 493.29 421.97 491.89 423.06C489.61 424.84 486.3 427.5 485.35 430.37C484.52 432.84 486.53 434.78 488.93 434.78C491.66 434.78 494.54 432.96 496.58 431.37C498.26 430 503.72 424.24 503.05 420.93C503.32 419.47 502.29 417.68 500.6 418.29Z" fill="#18216D" fill-opacity="1.000000" fill-rule="nonzero"/>
	<path id="Vector" d="M500.15 395.82C499.33 391.92 496.42 392.87 493.73 393.36C493.4 393.38 493.07 393.38 492.74 393.36C490.01 393.55 487.59 397.46 486.39 399.69C484.86 402.42 483.66 406.07 485.31 409.04C488.72 415.25 495.92 407.32 497.85 404.01C499.2 401.76 500.72 398.55 500.15 395.82Z" fill="#18216D" fill-opacity="1.000000" fill-rule="nonzero"/>
	<path id="Vector" d="M729.86 79.33L478.79 79.33L478.79 230.8L729.86 230.8L729.86 79.33Z" fill="#FFFFFF" fill-opacity="1.000000" fill-rule="nonzero"/>
	<path id="Vector" d="M729.86 79.33L729.86 230.8L478.79 230.8L478.79 79.33L729.86 79.33Z" stroke="#18216D" stroke-opacity="1.000000" stroke-width="1.000000"/>
	<path id="Vector" d="M497.68 223.95C496.42 215.89 497.95 207.13 503.13 200.84C505.58 197.9 508.78 195.48 510.32 191.99C511.03 190.2 511.45 188.31 511.58 186.39C512.62 175.85 510.83 164.33 516.49 155.36C518.77 151.75 522.1 148.91 524.68 145.47C529.33 139.13 531.05 131.09 535.21 124.43C539.37 117.77 547.98 112.44 554.93 116.12C561.88 119.81 562.37 129.29 560.25 136.67C558.14 144.05 554.14 151.23 554.83 158.87C555.46 165.54 559.65 171.48 560.4 178.15C561.23 185.51 557.81 192.71 557.67 200.11C557.43 209.5 562.35 218.58 561.25 227.9C560.14 237.22 553.25 244.74 544.96 248.71C536.25 252.89 517.02 257.09 508.52 250.27C502.48 245.46 498.75 230.92 497.68 223.95Z" fill="#005FEC" fill-opacity="1.000000" fill-rule="nonzero"/>
	<path id="Vector" d="M620.48 232.13C619.23 224.08 620.75 215.32 625.94 209.03C630.22 203.85 633.92 202.02 633.72 195.14C633.47 186.43 630.55 178.66 631.92 169.71C633.73 157.81 640.59 147.22 643.06 135.44C645.04 125.89 644.43 115.21 650.5 107.66C652.27 105.25 654.9 103.6 657.84 103.06C665.17 102.07 670.34 110.58 670.7 117.98C671.05 125.37 668.81 132.99 670.91 140.06C673.17 147.67 680.08 153.36 681.75 161.12C682.72 165.69 681.75 170.48 682.38 175.11C682.91 179.07 684.6 182.75 685.95 186.5C693.7 208.02 691.2 245.67 667.75 256.9C659.04 261.07 639.82 265.28 631.32 258.45C625.28 253.65 621.56 239.11 620.48 232.13Z" fill="#005FEC" fill-opacity="1.000000" fill-rule="nonzero"/>
	<path id="Vector" d="M653.93 244.47L653.93 244.39C654.07 235.63 656.14 227.01 659.98 219.14C666.36 206.14 677.53 195.2 680.19 180.94C681.48 174.11 680.62 166.99 680.89 160C681.16 153.02 682.84 145.57 688 140.9C690.4 138.72 694.08 137.26 696.88 138.92C698.4 140 699.53 141.55 700.09 143.33C702.82 150.41 702.69 158.26 703.7 165.8C705.3 177.72 714.22 183.75 715.59 195.28C717.13 208.42 715.22 221.69 711.39 234.29C707.21 248.02 703.85 262.34 689.55 269.21C677.38 275.05 665.43 276.85 658.03 263.42C655.05 257.56 653.64 251.03 653.93 244.47Z" fill="#005FEC" fill-opacity="1.000000" fill-rule="nonzero"/>
	<path id="Vector" d="M537.68 227.86C537.49 224.67 539.27 221.72 541.11 219.13C548.08 209.32 556.9 200.93 563.28 190.71C566.82 185.06 570.83 179.69 572.22 172.97C572.76 169.71 573 166.41 572.96 163.1C572.92 156.46 573.84 149.86 575.68 143.48C578.74 133.93 585.41 125.39 594.45 121.05C609.46 113.86 632.65 114.48 640.84 131.7C644.05 138.43 644.67 146.22 644.71 153.54C644.71 162.41 643.75 171.34 644.92 180.14C646.28 190.04 651.88 196.12 659.11 202.48C664.09 206.86 667.9 211.02 668.76 217.71C669.58 224.08 666.62 230.41 662.39 235.03C656.4 241.56 648.03 245.55 639.43 247.72C630.84 249.88 621.91 250.38 613.07 250.91C602.96 251.52 592.8 252.19 582.74 251.06C572.68 249.93 562.61 246.84 554.6 240.66C551.64 238.38 548.87 235.61 545.43 234.06C541.99 232.5 537.97 232.83 537.68 227.86Z" fill="#18216D" fill-opacity="1.000000" fill-rule="nonzero"/>
	<path id="Vector" d="M610.53 239.24C606.42 239.78 602.28 240.03 598.13 239.98C595.7 239.98 592.05 240.13 590.07 238.49C588.09 236.85 587.99 234.08 587.94 231.93C587.73 224.2 589.3 216.58 590.09 208.89C590.69 202.71 590.75 196.27 588.85 190.3C587.12 184.84 584.5 180.05 583.64 174.21C583.44 172.84 583.64 169.6 582.73 168.46C581.81 167.33 580.26 167.58 579.37 166.43C578.5 165.21 578.1 163.72 578.22 162.23C578.34 160.56 578.91 158.95 579.88 157.58C580.84 156.21 582.15 155.13 583.68 154.45C583.74 154.43 583.79 154.4 583.82 154.35C583.85 154.3 583.87 154.24 583.86 154.18C582.94 144.63 586.98 134.54 595.46 129.89C604.16 125.13 614.18 121.58 623.36 127.71C627.82 130.8 631.02 135.38 632.39 140.63C632.86 142.22 634.36 157.11 634.45 157.83C635.19 157.73 635.94 157.84 636.61 158.15C637.28 158.46 637.85 158.97 638.25 159.59C639.02 160.87 639.43 162.32 639.42 163.81C639.52 165.32 639.15 166.83 638.36 168.12C637.57 169.41 636.4 170.43 635.01 171.03C631.6 172.39 632.53 175.96 631.68 179.22C630.64 183.29 628.78 187.1 626.23 190.43C625.63 191.12 625.13 191.9 624.77 192.74C624.48 193.74 624.4 194.8 624.52 195.84C625.11 206.83 625.37 217.82 625.28 228.83C625.28 232.15 624.78 234.88 621.78 236.47C618.27 238.29 614.38 238.71 610.53 239.24Z" fill="#FFFFFF" fill-opacity="1.000000" fill-rule="nonzero"/>
	<path id="Vector" d="M598.13 239.98C595.7 239.98 592.05 240.13 590.07 238.49C588.09 236.85 587.99 234.08 587.94 231.93C587.73 224.2 589.3 216.58 590.09 208.89C590.69 202.71 590.75 196.27 588.85 190.3C587.12 184.84 584.5 180.05 583.64 174.21C583.44 172.84 583.64 169.6 582.73 168.46C581.81 167.33 580.26 167.58 579.37 166.43C578.5 165.21 578.1 163.72 578.22 162.23C578.34 160.56 578.91 158.95 579.88 157.58C580.84 156.21 582.15 155.13 583.68 154.45C583.74 154.43 583.79 154.4 583.82 154.35C583.85 154.3 583.87 154.24 583.86 154.18C582.94 144.63 586.98 134.54 595.46 129.89C604.16 125.13 614.18 121.58 623.36 127.71C627.82 130.8 631.02 135.38 632.39 140.63C632.86 142.22 634.36 157.11 634.45 157.83C635.19 157.73 635.94 157.84 636.61 158.15C637.28 158.46 637.85 158.97 638.25 159.59C639.02 160.87 639.43 162.32 639.42 163.81C639.52 165.32 639.15 166.83 638.36 168.12C637.57 169.41 636.4 170.43 635.01 171.03C631.6 172.39 632.53 175.96 631.68 179.22C630.64 183.29 628.78 187.1 626.23 190.43C625.63 191.12 625.13 191.9 624.77 192.74C624.48 193.74 624.4 194.8 624.52 195.84C625.11 206.83 625.37 217.82 625.28 228.83C625.28 232.15 624.78 234.88 621.78 236.47C618.27 238.29 614.38 238.71 610.53 239.24C606.42 239.78 602.28 240.03 598.13 239.98Z" stroke="#18216D" stroke-opacity="1.000000" stroke-width="1.000000"/>
	<path id="Vector" d="M594.6 128.55C590.12 130.33 586.3 133.46 583.68 137.5C581.22 141.88 580.15 146.89 580.61 151.89C580.76 153.52 581.88 155.41 583.5 155.2C584.78 155.04 585.51 153.69 586.23 152.59C590.86 145.57 601.92 144.07 609.67 143.55C611.64 143.42 613.6 143.38 615.58 143.42C620.89 143.53 626.08 144.97 631.32 145.19C635.41 145.36 639.95 142.46 642.56 139.5C645.41 136.25 646.96 132.08 646.93 127.76C646.98 125.86 646.46 123.99 645.41 122.4C643.64 119.97 640.21 119.03 637.35 119.19C634.62 119.34 631.93 119.82 629.32 120.64C626.75 121.7 624.08 122.5 621.34 123.03C618.52 123.37 615.68 124.05 612.83 124.49C606.67 125.37 600.35 126.03 594.6 128.55Z" fill="#18216D" fill-opacity="1.000000" fill-rule="nonzero"/>
	<path id="Vector" d="M610.63 186.71C608.24 187.43 606.36 188.07 603.89 187.12C603.22 186.84 602.74 187.98 603.4 188.28C605.78 189.4 609.17 189.64 611.24 187.76C611.34 187.66 611.41 187.53 611.43 187.39C611.44 187.26 611.42 187.11 611.34 186.99C611.28 186.87 611.17 186.78 611.04 186.73C610.91 186.68 610.76 186.67 610.63 186.71Z" fill="#18216D" fill-opacity="1.000000" fill-rule="nonzero"/>
	<path id="Vector" d="M610.19 171.15L609.61 171.15L605.23 171.83C600.07 172.64 603.66 179.24 607.75 178.25C608.52 178.09 609.24 177.76 609.87 177.28C610.61 176.55 611.18 175.67 611.53 174.69C611.81 174.13 611.99 173.52 612.06 172.9C612.1 172.59 612.05 172.27 611.91 171.98C611.78 171.7 611.57 171.45 611.31 171.28C610.96 171.12 610.57 171.08 610.19 171.15Z" fill="#18216D" fill-opacity="1.000000" fill-rule="nonzero"/>
	<path id="Vector" d="M607.27 166.59C606.25 166.59 607.27 160.56 607.35 159.77C607.54 157.95 607.49 156.12 607.2 154.31C607.2 154.03 606.75 154.11 606.74 154.31C606.56 158.08 605.72 161.75 605.5 165.48C605.42 166.84 605.88 168.2 607.44 167.73C607.54 167.67 607.63 167.57 607.69 167.46C607.74 167.35 607.76 167.23 607.74 167.11C607.72 166.98 607.67 166.87 607.59 166.78C607.5 166.69 607.39 166.62 607.27 166.59Z" fill="#18216D" fill-opacity="1.000000" fill-rule="nonzero"/>
	<path id="Vector" d="M595.63 159.27C595.58 159.07 595.46 158.9 595.3 158.78C595.13 158.66 594.94 158.59 594.73 158.59L594.64 158.59C594.45 158.59 594.27 158.63 594.1 158.73C593.94 158.82 593.8 158.96 593.71 159.12C593.71 159.12 593.71 159.12 593.71 159.19C593.57 159.35 593.48 159.56 593.46 159.78C593.44 160 593.49 160.22 593.6 160.41L593.68 160.52C594.26 161.31 595.78 161.16 595.71 159.98C595.72 159.74 595.69 159.5 595.63 159.27Z" fill="#18216D" fill-opacity="1.000000" fill-rule="nonzero"/>
	<path id="Vector" d="M620.14 158.01C619.23 157.17 617.85 158.54 618.78 159.38C618.8 159.52 618.85 159.66 618.93 159.78C619.01 159.92 619.12 160.03 619.26 160.11C619.39 160.19 619.55 160.23 619.7 160.23C619.86 160.23 620.02 160.19 620.15 160.11C620.29 160.03 620.4 159.92 620.48 159.78C620.63 159.49 620.67 159.16 620.61 158.84C620.55 158.52 620.38 158.23 620.14 158.01Z" fill="#18216D" fill-opacity="1.000000" fill-rule="nonzero"/>
	<path id="Vector" d="M613.32 199.08C616.77 201.13 620.37 202.93 624.08 204.46C624.4 204.59 624.74 204.65 625.09 204.62C625.43 204.6 625.76 204.49 626.05 204.31C626.34 204.12 626.58 203.87 626.76 203.58C626.93 203.28 627.03 202.95 627.04 202.6C627.16 199.17 627.64 195.76 628.48 192.43C628.94 190.71 630.47 189.3 630.47 187.53C630.48 187.28 630.42 187.03 630.31 186.82C630.13 186.57 629.87 186.4 629.57 186.33C629.28 186.26 628.96 186.3 628.7 186.43C628.15 186.72 627.69 187.13 627.33 187.62C623.55 192.12 619.5 193.84 613.93 195.15C613.51 195.25 613.14 195.47 612.84 195.78C612.55 196.1 612.36 196.49 612.3 196.91C612.23 197.33 612.29 197.77 612.47 198.15C612.65 198.54 612.95 198.87 613.32 199.08Z" fill="#18216D" fill-opacity="1.000000" fill-rule="nonzero"/>
	<path id="Vector" d="M729.86 79.33L729.86 230.8L478.79 230.8L478.79 79.33L729.86 79.33Z" stroke="#18216D" stroke-opacity="1.000000" stroke-width="1.000000"/>
	<path id="Vector" d="M486.36 70.15L722.32 70.15C724.49 70.15 726.57 71.01 728.1 72.55C729.64 74.08 730.5 76.17 730.5 78.34L730.5 88.6L478.07 88.6L478.07 78.34C478.07 77.25 478.28 76.18 478.7 75.18C479.12 74.18 479.73 73.27 480.5 72.51C481.28 71.75 482.19 71.15 483.2 70.74C484.2 70.34 485.28 70.14 486.36 70.15Z" fill="#18216D" fill-opacity="1.000000" fill-rule="nonzero"/>
	<path id="Vector" d="M494.76 80.33C494.76 83.12 492.49 85.38 489.71 85.38C486.92 85.38 484.66 83.12 484.66 80.33C484.66 77.54 486.92 75.28 489.71 75.28C492.49 75.28 494.76 77.54 494.76 80.33Z" fill="#FFFFFF" fill-opacity="1.000000" fill-rule="evenodd"/>
	<path id="Vector" d="M513.35 80.1C513.4 81.09 513.14 82.08 512.62 82.93C512.11 83.78 511.35 84.46 510.45 84.88C509.54 85.3 508.54 85.44 507.55 85.29C506.57 85.14 505.65 84.7 504.92 84.02C504.19 83.35 503.67 82.47 503.43 81.51C503.2 80.54 503.25 79.53 503.59 78.59C503.93 77.65 504.54 76.84 505.34 76.25C506.15 75.66 507.11 75.33 508.1 75.28C509.43 75.23 510.74 75.7 511.72 76.6C512.71 77.51 513.29 78.76 513.35 80.1Z" fill="#FFFFFF" fill-opacity="1.000000" fill-rule="nonzero"/>
	<path id="Vector" d="M513.35 80.1C513.4 81.09 513.14 82.08 512.62 82.93C512.11 83.78 511.35 84.46 510.45 84.88C509.54 85.3 508.54 85.44 507.55 85.29C506.57 85.14 505.65 84.7 504.92 84.02C504.19 83.35 503.67 82.47 503.43 81.51C503.2 80.54 503.25 79.53 503.59 78.59C503.93 77.65 504.54 76.84 505.34 76.25C506.15 75.66 507.11 75.33 508.1 75.28C509.43 75.23 510.74 75.7 511.72 76.6C512.71 77.51 513.29 78.76 513.35 80.1Z" fill="#FFFFFF" fill-opacity="1.000000" fill-rule="nonzero"/>
	<path id="Vector" d="M502.45 74.19L514.19 86.47" stroke="#18216D" stroke-opacity="1.000000" stroke-width="1.000000"/>
	<path id="Vector" d="M502.18 86.2L514.46 74.45" stroke="#18216D" stroke-opacity="1.000000" stroke-width="1.000000"/>
	<path id="Vector" d="M439.22 26.8L255.01 26.8L255.01 178.26L439.22 178.26L439.22 26.8Z" fill="#FFFFFF" fill-opacity="1.000000" fill-rule="nonzero"/>
	<path id="Vector" d="M439.22 26.8L439.22 178.26L255.01 178.26L255.01 26.8L439.22 26.8Z" stroke="#18216D" stroke-opacity="1.000000" stroke-width="1.000000"/>
	<path id="Vector" d="M274.78 81.97C274.35 79.28 274.52 76.52 275.3 73.91C276.07 71.3 277.43 68.89 279.26 66.88C280.62 65.51 281.99 64.6 282.85 62.78C283.16 61.94 283.38 61.06 283.49 60.16C284.06 57.5 285.18 54.98 286.78 52.78C288.39 50.58 290.43 48.74 292.79 47.38C297.92 44.13 303.04 44.06 308.91 43.08C310.64 42.79 312.31 42.25 314.03 41.96C315.66 41.7 317.33 41.67 318.98 41.86C323.79 42.53 328.31 44.58 331.98 47.76C334.38 49.84 336.36 52.36 337.79 55.2C339.16 57.41 339.69 59.93 340.95 62.15C342.39 64.69 344.11 64.61 346.56 65.78C348.76 66.85 350.68 68.42 352.16 70.37C353.65 72.31 354.65 74.58 355.1 76.99C357.05 88.86 344.88 97.45 334.06 95C325.87 93.17 313.59 93.22 307.34 99.6C304.73 102.22 302.54 105.3 299.49 107.4C299.18 107.61 298.87 107.81 298.54 108C295.73 109.62 292.56 110.52 289.32 110.61C286.07 110.7 282.86 109.97 279.97 108.51C272.31 104.28 272.91 95.43 275.37 88.15C275.65 87.49 275.81 86.79 275.83 86.07C275.76 85.46 275.61 84.86 275.38 84.29C275.12 83.53 274.92 82.75 274.78 81.97Z" fill="#005FEC" fill-opacity="1.000000" fill-rule="nonzero"/>
	<path id="Vector" d="M311.73 128.24C314.78 134.21 321.28 137.17 328.45 136.21L328.61 136.21C330.43 135.91 332.16 135.26 333.71 134.28C335.27 133.3 336.61 132.02 337.66 130.51C338.7 129 339.43 127.29 339.8 125.49C340.17 123.69 340.18 121.84 339.81 120.04L337.4 107.65C336.97 106.03 336.89 104.33 337.18 102.68C337.69 101.24 338.39 99.86 339.24 98.59C344.7 88.69 338.5 77.45 333.46 68.87C331.44 65.39 328.59 62.47 325.16 60.38C321.73 58.29 317.83 57.09 313.82 56.89C296.18 56.16 287.49 72.18 290.91 87.88C292.88 96.8 298.24 103.2 305.07 108.88C311.91 114.55 312.29 119.74 311.73 128.24Z" fill="#FFFFFF" fill-opacity="1.000000" fill-rule="nonzero"/>
	<path id="Vector" d="M328.45 136.21L328.61 136.21C330.43 135.91 332.16 135.26 333.71 134.28C335.27 133.3 336.61 132.02 337.66 130.51C338.7 129 339.43 127.29 339.8 125.49C340.17 123.69 340.18 121.84 339.81 120.04L337.4 107.65C336.97 106.03 336.89 104.33 337.18 102.68C337.69 101.24 338.39 99.86 339.24 98.59C344.7 88.69 338.5 77.45 333.46 68.87C331.44 65.39 328.59 62.47 325.16 60.38C321.73 58.29 317.83 57.09 313.82 56.89C296.18 56.16 287.49 72.18 290.91 87.88C292.88 96.8 298.24 103.2 305.07 108.88C311.91 114.55 312.29 119.74 311.73 128.24C314.78 134.21 321.28 137.17 328.45 136.21Z" stroke="#18216D" stroke-opacity="1.000000" stroke-width="1.000000"/>
	<path id="Vector" d="M295.18 72.4C294.88 73.74 294.82 75.13 295.02 76.5C295.41 79.79 294.85 83.13 293.42 86.13C292.61 87.53 291.58 88.79 290.38 89.87C289.41 90.87 288.24 91.66 286.94 92.17C286.29 92.42 285.59 92.5 284.9 92.42C284.21 92.33 283.55 92.08 282.98 91.68C282.44 91.19 282.02 90.58 281.77 89.9C281.51 89.21 281.42 88.48 281.51 87.75C281.68 86.31 282 84.89 282.46 83.51C283.15 80.93 283.42 78.26 284.14 75.69C284.73 73.06 286.2 70.71 288.3 69.03C289.11 68.45 290.03 68.06 291.01 67.88C291.98 67.71 292.99 67.76 293.94 68.04C294.62 68.27 296.07 68.88 296.31 69.65C296.65 70.74 295.52 71.31 295.18 72.4Z" fill="#005FEC" fill-opacity="1.000000" fill-rule="nonzero"/>
	<path id="Vector" d="M299.94 71.15C301.7 70.68 303.4 70.02 305.01 69.18C305.38 68.94 305.81 68.8 306.26 68.76C306.65 68.78 307.02 68.9 307.35 69.1C309.82 70.49 312.53 71.42 315.33 71.83C318.16 72.01 321.31 70.68 322.27 68.02C322.4 67.65 322.57 67.19 322.96 67.13C323.1 67.14 323.24 67.17 323.37 67.23C323.5 67.28 323.61 67.37 323.7 67.48C326.91 70.21 330.18 74.89 335.05 72.7C337.64 71.54 338.98 68.61 339.15 65.72C339.45 59.44 334.81 53.69 329.09 51.07C323.37 48.45 316.81 48.48 310.57 49.29C306.16 49.74 301.85 50.92 297.81 52.77C293.49 54.9 291.91 58.22 289.54 62.32C288.91 63.22 288.5 64.26 288.34 65.35C288.18 66.44 288.27 67.56 288.6 68.61C289.97 71.58 293.88 72.21 297.1 71.75C298.06 71.61 299.01 71.41 299.94 71.15Z" fill="#005FEC" fill-opacity="1.000000" fill-rule="nonzero"/>
	<path id="Vector" d="M326.87 107.66C326.36 107.91 325.83 108.12 325.29 108.3C324.63 108.53 321.71 108.59 321.43 108.99C320.59 110.23 323.66 110.51 324.16 110.6C325.47 110.78 326.75 111.11 327.98 111.58C328.93 112 329.84 112.49 330.71 113.05L334.08 115.03C333.32 111.26 332.87 107.43 332.72 103.58C332.72 104.13 329.91 105.82 329.44 106.13C328.62 106.7 327.76 107.21 326.87 107.66Z" fill="#18216D" fill-opacity="1.000000" fill-rule="nonzero"/>
	<path id="Vector" d="M304.12 83.17C303.88 83.1 303.62 83.1 303.38 83.17C303.14 83.24 302.92 83.37 302.75 83.55C302.67 83.64 302.61 83.74 302.57 83.86C302.54 83.97 302.53 84.09 302.54 84.21C302.56 84.33 302.61 84.45 302.67 84.55C302.74 84.65 302.83 84.73 302.93 84.79C303.01 84.89 303.11 84.97 303.22 85.03C303.34 85.09 303.46 85.12 303.59 85.13C303.75 85.14 303.92 85.11 304.07 85.05C304.23 84.99 304.37 84.9 304.48 84.78C304.59 84.66 304.68 84.51 304.73 84.35C304.79 84.2 304.81 84.03 304.79 83.86C304.77 83.69 304.69 83.53 304.57 83.4C304.45 83.28 304.29 83.2 304.12 83.17Z" fill="#18216D" fill-opacity="1.000000" fill-rule="nonzero"/>
	<path id="Vector" d="M326.41 79.85C326.26 79.62 326.03 79.45 325.76 79.37C325.73 79.31 325.68 79.26 325.62 79.22C325.57 79.18 325.5 79.16 325.43 79.15C325.36 79.14 325.29 79.15 325.23 79.17C325.17 79.2 325.11 79.24 325.06 79.29C324.56 79.8 324.45 79.93 324.6 80.66C324.63 80.78 324.69 80.89 324.78 80.98C324.86 81.07 324.97 81.13 325.09 81.16C325.35 81.24 325.62 81.23 325.87 81.13C326.12 81.03 326.33 80.85 326.46 80.62C326.52 80.5 326.55 80.36 326.55 80.23C326.54 80.09 326.49 79.96 326.41 79.85Z" fill="#18216D" fill-opacity="1.000000" fill-rule="nonzero"/>
	<path id="Vector" d="M318.58 86.21C318.19 84.71 317.14 83.17 316.94 81.65C316.94 81.54 316.9 81.44 316.82 81.36C316.75 81.29 316.64 81.24 316.54 81.24C316.43 81.24 316.32 81.29 316.25 81.36C316.17 81.44 316.13 81.54 316.13 81.65C316.17 82.94 316.43 84.22 316.89 85.42C317.27 86.88 317.29 88.42 317.74 89.84C317.91 90.4 318.88 90.52 318.99 89.84C319.11 88.62 318.97 87.38 318.58 86.21Z" fill="#18216D" fill-opacity="1.000000" fill-rule="nonzero"/>
	<path id="Vector" d="M328.18 78.12C327.21 77.43 326.03 77.11 324.85 77.19C323.67 77.27 322.55 77.77 321.69 78.58C321.64 78.66 321.6 78.74 321.6 78.84C321.6 78.93 321.63 79.02 321.69 79.09C321.75 79.16 321.83 79.22 321.92 79.24C322.01 79.26 322.1 79.25 322.18 79.21C323.02 78.69 323.95 78.33 324.91 78.13C325.91 78.12 326.9 78.29 327.83 78.64C327.9 78.67 327.98 78.68 328.05 78.65C328.12 78.63 328.19 78.59 328.23 78.53C328.27 78.46 328.29 78.39 328.28 78.31C328.27 78.24 328.23 78.17 328.18 78.12Z" fill="#18216D" fill-opacity="1.000000" fill-rule="nonzero"/>
	<path id="Vector" d="M303.82 80.77C302.33 80.66 300.86 81.15 299.73 82.13C299.65 82.21 299.61 82.32 299.6 82.43C299.59 82.53 299.62 82.64 299.67 82.74C299.73 82.83 299.81 82.9 299.91 82.95C300.01 82.99 300.12 83 300.23 82.98C301.88 82.54 304.43 81.04 306.07 82.4C306.12 82.45 306.18 82.48 306.25 82.48C306.31 82.49 306.38 82.48 306.44 82.44C306.5 82.41 306.54 82.36 306.57 82.3C306.6 82.24 306.6 82.17 306.59 82.1C306.3 80.92 304.81 80.79 303.82 80.77Z" fill="#18216D" fill-opacity="1.000000" fill-rule="nonzero"/>
	<path id="Vector" d="M317.75 98.57C317.68 98.17 317.77 97.76 318 97.43C318.28 96.86 318.61 96.31 318.96 95.78C319.44 94.96 320.15 94.32 321 93.92C321.43 93.74 321.91 93.71 322.35 93.84C322.8 93.98 323.19 94.27 323.44 94.66C323.59 95.08 323.62 95.52 323.55 95.96C323.48 96.4 323.29 96.81 323.02 97.15C322.35 98.2 318.51 101.06 317.75 98.57Z" fill="#18216D" fill-opacity="1.000000" fill-rule="nonzero"/>
	<path id="Vector" d="M334.6 66.66C332.57 66.6 330.58 66.02 328.84 64.97C327.75 64.17 324.91 61.69 325.13 60.2C325.2 59.77 324.6 59.41 324.35 59.88C323.36 61.76 325.81 64.3 327.08 65.54C329.13 67.6 331.85 68.17 334.63 68.54C335.82 68.69 335.82 66.75 334.6 66.66Z" fill="#FFFFFF" fill-opacity="1.000000" fill-rule="nonzero"/>
	<path id="Vector" d="M313.41 64.99C312.1 64.78 310.84 64.31 309.7 63.63C308.7 62.96 306.18 61.02 307.23 59.7C307.5 59.36 307.05 58.87 306.74 59.21C305.37 60.69 306.89 62.56 308.01 63.7C309.37 65.06 311.56 66.6 313.47 65.72C313.52 65.67 313.57 65.61 313.6 65.55C313.62 65.48 313.64 65.41 313.63 65.34C313.63 65.27 313.6 65.2 313.56 65.14C313.53 65.08 313.47 65.03 313.41 64.99Z" fill="#FFFFFF" fill-opacity="1.000000" fill-rule="nonzero"/>
	<path id="Vector" d="M298.97 65.77C297.98 65.58 296.96 65.47 295.95 65.44C295.26 65.32 292.11 64.5 292.94 63.33C293.22 62.92 292.57 62.41 292.25 62.8C289.91 65.52 297.19 67.91 299.07 66.52C299.14 66.48 299.19 66.42 299.22 66.34C299.25 66.27 299.26 66.19 299.25 66.12C299.24 66.04 299.21 65.96 299.16 65.9C299.11 65.84 299.05 65.8 298.97 65.77Z" fill="#FFFFFF" fill-opacity="1.000000" fill-rule="nonzero"/>
	<path id="Vector" d="M439.22 26.8L439.22 178.26L255.01 178.26L255.01 26.8L439.22 26.8Z" stroke="#18216D" stroke-opacity="1.000000" stroke-width="1.000000"/>
	<path id="Vector" d="M294.51 191.36C284.58 190.2 274.49 188.63 264.67 190.5C265.43 174.95 267.6 159.25 273.69 144.93C279.78 130.6 290.06 117.64 304.05 110.81C321.52 102.19 342.72 102.19 361.13 107.63C379.19 113 396.1 126.82 408.97 140.23C415.76 147.31 421.76 155.12 426.86 163.5C428.16 165.5 429.21 167.67 429.97 169.94C430.57 172.04 430.73 174.25 430.42 176.42C430.11 178.59 429.36 180.67 428.19 182.53C420.47 194.73 402.17 190.91 390.33 192.08C379.71 193.18 369.07 193.87 358.4 194.17C337.06 194.8 315.71 193.86 294.51 191.36Z" fill="#18216D" fill-opacity="1.000000" fill-rule="nonzero"/>
	<path id="Vector" d="M297.08 134.39C298.44 129.04 299.68 123.19 298.44 118.33C297.17 113.16 292.98 108.66 290.75 103.83C288.77 99.45 287.73 94.28 289.46 89.85C289.56 89.56 289.71 89.29 289.9 89.05C290.13 88.86 290.4 88.72 290.68 88.65C290.97 88.57 291.27 88.55 291.56 88.59C291.86 88.64 292.14 88.74 292.39 88.9C292.64 89.06 292.86 89.27 293.02 89.51C293.65 90.54 294.07 91.67 294.27 92.86C295.19 96.13 297.42 98.85 299.6 101.45C304.58 107.43 310.94 111.36 312.18 119.57C312.99 124.88 312.5 130.38 313.01 135.74C313.63 142.01 314.64 148.21 315.23 154.48C315.82 161.01 317.74 180.77 310.07 183.98C305.25 186 293.42 184.37 289.68 180.51C288.62 179.29 287.8 177.88 287.29 176.34C286.77 174.81 286.57 173.19 286.68 171.58C286.93 168.35 287.63 165.18 288.77 162.16C291.13 154.9 293.72 147.68 295.59 140.26C296 138.43 296.54 136.45 297.08 134.39Z" fill="#FFFFFF" fill-opacity="1.000000" fill-rule="nonzero"/>
	<path id="Vector" d="M298.44 118.33C297.17 113.16 292.98 108.66 290.75 103.83C288.77 99.45 287.73 94.28 289.46 89.85C289.56 89.56 289.71 89.29 289.9 89.05C290.13 88.86 290.4 88.72 290.68 88.65C290.97 88.57 291.27 88.55 291.56 88.59C291.86 88.64 292.14 88.74 292.39 88.9C292.64 89.06 292.86 89.27 293.02 89.51C293.65 90.54 294.07 91.67 294.27 92.86C295.19 96.13 297.42 98.85 299.6 101.45C304.58 107.43 310.94 111.36 312.18 119.57C312.99 124.88 312.5 130.38 313.01 135.74C313.63 142.01 314.64 148.21 315.23 154.48C315.82 161.01 317.74 180.77 310.07 183.98C305.25 186 293.42 184.37 289.68 180.51C288.62 179.29 287.8 177.88 287.29 176.34C286.77 174.81 286.57 173.19 286.68 171.58C286.93 168.35 287.63 165.18 288.77 162.16C291.13 154.9 293.72 147.68 295.59 140.26C296 138.43 296.54 136.45 297.08 134.39C298.44 129.04 299.68 123.19 298.44 118.33Z" stroke="#18216D" stroke-opacity="1.000000" stroke-width="1.000000"/>
	<path id="Vector" d="M382.81 162.32C382.8 162.21 382.76 162.1 382.7 162C382.64 161.9 382.56 161.82 382.47 161.75C382.37 161.68 382.27 161.64 382.16 161.61C382.04 161.59 381.93 161.59 381.81 161.61C378.65 158.35 375.29 154.7 371.44 152.38C371.12 152.17 370.6 152.61 370.87 152.95C372.42 154.78 374.09 156.5 375.88 158.09C377.73 159.95 379.59 161.82 381.42 163.72C381.9 164.22 383.01 163.88 382.92 163.1C382.88 162.84 382.85 162.58 382.81 162.32Z" fill="#FFFFFF" fill-opacity="1.000000" fill-rule="nonzero"/>
	<path id="Vector" d="M394.19 159.64C382.61 161.66 370.83 165.82 360.5 169.62C357.9 170.7 355.2 171.51 352.44 172.04C349.45 172.32 346.45 172.35 343.46 172.13C335.49 172.01 327 173.92 321.42 179.63C319.46 181.65 318.91 186.68 322.13 187.98C325.35 189.27 330.45 186.98 334.12 187.42C337.83 187.9 341.58 187.93 345.3 187.53C356.73 186.31 368.18 185.67 379.67 185.62C393.04 185.53 406.5 186.23 419.71 184.16C422.23 183.89 424.67 183.13 426.88 181.9C432.34 178.52 433.71 170.12 429.45 165.53C424.66 160.37 415.57 158.6 408.89 158.43C403.96 158.36 399.04 158.76 394.19 159.64Z" fill="#FFFFFF" fill-opacity="1.000000" fill-rule="nonzero"/>
	<path id="Vector" d="M360.5 169.62C357.9 170.7 355.2 171.51 352.44 172.04C349.45 172.32 346.45 172.35 343.46 172.13C335.49 172.01 327 173.92 321.42 179.63C319.46 181.65 318.91 186.68 322.13 187.98C325.35 189.27 330.45 186.98 334.12 187.42C337.83 187.9 341.58 187.93 345.3 187.53C356.73 186.31 368.18 185.67 379.67 185.62C393.04 185.53 406.5 186.23 419.71 184.16C422.23 183.89 424.67 183.13 426.88 181.9C432.34 178.52 433.71 170.12 429.45 165.53C424.66 160.37 415.57 158.6 408.89 158.43C403.96 158.36 399.04 158.76 394.19 159.64C382.61 161.66 370.83 165.82 360.5 169.62Z" stroke="#18216D" stroke-opacity="1.000000" stroke-width="1.000000"/>
	<path id="Vector" d="M439.22 26.8L439.22 178.26L255.01 178.26L255.01 26.8L439.22 26.8Z" stroke="#18216D" stroke-opacity="1.000000" stroke-width="1.000000"/>
	<path id="Vector" d="M262.58 18.3L431.67 18.3C433.84 18.3 435.93 19.16 437.46 20.7C439 22.23 439.86 24.31 439.86 26.49L439.86 36.75L254.35 36.75L254.35 26.53C254.35 25.44 254.56 24.37 254.97 23.37C255.38 22.37 255.99 21.46 256.75 20.7C257.52 19.93 258.43 19.33 259.43 18.91C260.43 18.5 261.5 18.29 262.58 18.3Z" fill="#18216D" fill-opacity="1.000000" fill-rule="nonzero"/>
	<path id="Vector" d="M270.97 28.48C270.97 31.27 268.71 33.53 265.93 33.53C263.14 33.53 260.88 31.27 260.88 28.48C260.88 25.69 263.14 23.43 265.93 23.43C268.71 23.43 270.97 25.69 270.97 28.48Z" fill="#FFFFFF" fill-opacity="1.000000" fill-rule="evenodd"/>
	<path id="Vector" d="M289.57 28.25C289.62 29.24 289.36 30.23 288.84 31.08C288.33 31.93 287.57 32.6 286.67 33.02C285.76 33.44 284.76 33.59 283.77 33.44C282.79 33.28 281.87 32.84 281.14 32.17C280.41 31.5 279.89 30.62 279.65 29.66C279.42 28.69 279.47 27.67 279.81 26.74C280.15 25.8 280.76 24.99 281.56 24.4C282.37 23.81 283.32 23.47 284.32 23.43C285.65 23.37 286.96 23.85 287.94 24.75C288.93 25.66 289.51 26.91 289.57 28.25Z" fill="#FFFFFF" fill-opacity="1.000000" fill-rule="nonzero"/>
	<path id="Vector" d="M289.57 28.25C289.61 29.24 289.36 30.23 288.84 31.08C288.33 31.93 287.57 32.6 286.67 33.02C285.76 33.44 284.76 33.59 283.77 33.44C282.79 33.28 281.87 32.84 281.14 32.17C280.41 31.5 279.89 30.62 279.65 29.66C279.41 28.69 279.47 27.67 279.81 26.74C280.15 25.8 280.76 24.99 281.56 24.4C282.37 23.81 283.32 23.47 284.32 23.43C285.65 23.37 286.96 23.85 287.94 24.75C288.93 25.66 289.51 26.91 289.57 28.25Z" fill="#FFFFFF" fill-opacity="1.000000" fill-rule="nonzero"/>
	<path id="Vector" d="M278.67 22.34L290.41 34.62" stroke="#18216D" stroke-opacity="1.000000" stroke-width="1.000000"/>
	<path id="Vector" d="M278.4 34.35L290.68 22.6" stroke="#18216D" stroke-opacity="1.000000" stroke-width="1.000000"/>
	<path id="Vector" d="M432.4 244.44L219.53 244.44L219.53 395.9L432.4 395.9L432.4 244.44Z" fill="#FFFFFF" fill-opacity="1.000000" fill-rule="nonzero"/>
	<path id="Vector" d="M432.4 244.44L432.4 395.9L219.53 395.9L219.53 244.44L432.4 244.44Z" stroke="#18216D" stroke-opacity="1.000000" stroke-width="1.000000"/>
	<path id="Vector" d="M362.23 323.12C370.79 326.94 381.24 326.82 392.13 319.93C417.22 304.04 409.99 250.34 368.33 260.87C329.35 270.78 338.26 312.42 362.23 323.12Z" fill="#005FEC" fill-opacity="1.000000" fill-rule="nonzero"/>
	<path id="Vector" d="M399.63 290.14C395.28 291.6 391.15 293.59 386.74 294.94C382.71 296.16 378.61 297.12 374.46 297.83C374.65 292.38 374.9 286.88 375.2 281.34C375.51 275.62 376.56 269.53 376.03 263.83C376.03 263.46 375.44 263.34 375.35 263.73C373.98 269.11 374.06 275.14 373.69 280.65C373.29 286.73 372.97 292.8 372.71 298.86C372.71 298.99 372.74 299.12 372.8 299.24C372.86 299.35 372.94 299.46 373.05 299.54C373.15 299.62 373.27 299.67 373.4 299.7C373.53 299.73 373.66 299.72 373.79 299.69C382.61 298.32 392.51 296.21 400.25 291.6C401 291.15 400.52 289.84 399.63 290.14Z" fill="#18216D" fill-opacity="1.000000" fill-rule="nonzero"/>
	<path id="Vector" d="M376.36 322.95C376.25 322.49 376.32 322.01 376.53 321.59C376.74 321.21 376.31 320.69 375.92 320.96C375.6 321.17 375.35 321.44 375.17 321.77C374.99 322.1 374.9 322.47 374.9 322.85C374.9 323.5 375.25 324.56 376.08 324.48C376.19 324.48 376.29 324.44 376.37 324.37C376.46 324.31 376.52 324.22 376.55 324.11C376.75 323.73 376.44 323.38 376.36 322.95Z" fill="#18216D" fill-opacity="1.000000" fill-rule="nonzero"/>
	<path id="Vector" d="M348.52 292.18C348.1 291.35 347.58 291.94 347.03 292.18C346.36 292.34 345.66 292.41 344.97 292.39C344.21 292.46 343.44 292.55 342.68 292.69C342.2 292.79 342.17 293.62 342.68 293.69C344.11 293.94 345.56 294.03 347.01 293.93C347.77 293.81 349.01 293.14 348.52 292.18Z" fill="#18216D" fill-opacity="1.000000" fill-rule="nonzero"/>
	<path id="Vector" d="M376.75 260.12C376.67 260.04 376.57 260 376.46 259.98C376.36 259.97 376.25 259.99 376.15 260.04C375.79 260.27 375.52 260.62 375.39 261.03C375.27 261.44 375.29 261.88 375.46 262.27C375.49 262.41 375.56 262.54 375.66 262.64C375.76 262.74 375.89 262.81 376.03 262.85C376.15 262.87 376.28 262.87 376.4 262.85C376.52 262.82 376.63 262.76 376.73 262.69C376.83 262.62 376.92 262.52 376.97 262.41C377.03 262.3 377.07 262.18 377.08 262.06C377.18 261.73 377.2 261.39 377.14 261.05C377.09 260.71 376.95 260.39 376.75 260.12Z" fill="#18216D" fill-opacity="1.000000" fill-rule="nonzero"/>
	<path id="Vector" d="M349.98 274.15C349.33 273.94 348.66 273.78 347.99 273.67C347.5 273.57 347.11 274.26 347.62 274.53C348.19 274.83 348.79 275.1 349.39 275.33C349.88 275.51 350.5 275.82 350.98 275.46C351.05 275.41 351.1 275.34 351.13 275.26C351.16 275.19 351.17 275.1 351.15 275.02C351.02 274.46 350.47 274.32 349.98 274.15Z" fill="#18216D" fill-opacity="1.000000" fill-rule="nonzero"/>
	<path id="Vector" d="M357.93 268.81C357.51 268.43 357.08 268.1 356.57 267.73C356.07 267.36 355.83 266.97 355.41 266.67C355.33 266.62 355.24 266.6 355.15 266.61C355.06 266.61 354.97 266.64 354.9 266.7C354.82 266.76 354.77 266.83 354.74 266.92C354.71 267 354.7 267.1 354.73 267.19C354.99 267.75 355.37 268.26 355.84 268.67C356.31 269.08 356.86 269.39 357.46 269.57C357.56 269.61 357.66 269.6 357.76 269.57C357.86 269.53 357.94 269.47 358 269.38C358.05 269.29 358.07 269.19 358.06 269.08C358.05 268.98 358.01 268.89 357.93 268.81Z" fill="#18216D" fill-opacity="1.000000" fill-rule="nonzero"/>
	<path id="Vector" d="M353.47 311.56C352.58 312.19 351.77 312.94 351.07 313.78C350.74 314.21 351.17 314.96 351.7 314.6C352.59 313.97 353.4 313.21 354.1 312.37C354.44 311.97 353.98 311.19 353.47 311.56Z" fill="#18216D" fill-opacity="1.000000" fill-rule="nonzero"/>
	<path id="Vector" d="M361.74 317.91C361.46 318.4 361.16 318.89 360.85 319.38C360.55 319.87 360.32 320.16 360.5 320.74C360.54 320.89 360.64 321.01 360.77 321.08C360.9 321.15 361.05 321.17 361.2 321.14C361.76 320.99 361.89 320.65 362.14 320.14L362.9 318.6C362.95 318.53 362.98 318.44 362.99 318.35C363 318.26 363 318.18 362.98 318.09C362.96 318 362.92 317.92 362.87 317.85C362.81 317.78 362.75 317.72 362.67 317.67C362.59 317.63 362.51 317.6 362.42 317.58C362.33 317.57 362.24 317.58 362.16 317.6C362.07 317.62 361.99 317.66 361.92 317.71C361.85 317.76 361.79 317.83 361.74 317.91Z" fill="#18216D" fill-opacity="1.000000" fill-rule="nonzero"/>
	<path id="Vector" d="M390.52 319.16C390.25 319.07 389.8 318.96 389.76 318.59C389.75 318.46 389.69 318.33 389.6 318.24C389.52 318.14 389.4 318.08 389.27 318.07C389.14 318.05 389.01 318.08 388.9 318.15C388.79 318.22 388.7 318.33 388.66 318.45C388.56 318.73 388.54 319.02 388.59 319.31C388.64 319.6 388.76 319.87 388.95 320.09C389.14 320.32 389.38 320.49 389.66 320.59C389.93 320.69 390.23 320.71 390.52 320.66C391.35 320.51 391.16 319.41 390.52 319.16Z" fill="#18216D" fill-opacity="1.000000" fill-rule="nonzero"/>
	<path id="Vector" d="M357.73 409.51C360.28 412.69 365.18 412.15 369.12 411.17C373.07 410.19 377.75 409.19 380.78 411.91C382.06 398.22 378.59 384.51 370.94 373.09C363.3 361.67 351.95 353.24 338.8 349.21C327.89 345.85 317.78 347.15 306.64 347.84C293.68 348.68 281.11 353.23 269.94 359.73C253.1 369.53 231.28 385.12 225.45 404.43L357.73 409.51Z" fill="#18216D" fill-opacity="1.000000" fill-rule="nonzero"/>
	<path id="Vector" d="M292.93 378.29C291.62 377.39 290.45 376.32 289.44 375.11C288.54 373.79 287.93 372.31 287.63 370.74C287.32 369.18 287.35 367.57 287.69 366.02C288.39 362.92 289.39 359.9 290.68 357C297.05 340.31 295.84 322 302.06 305.15C303.16 302.17 304.38 298.32 306.4 295.85C308.55 293.63 310.98 291.69 313.64 290.11C323.32 283.56 336.99 278.95 346.66 288.05C351.88 292.96 352.98 300.81 352.8 307.97C352.58 317.95 350.52 327.79 346.73 337.02C345.84 339.16 344.51 341.08 342.83 342.67C341.15 344.27 339.16 345.49 336.98 346.26C333.13 347.63 331.42 347.22 329.65 350.94C327.65 355.72 326.94 360.94 327.57 366.09C328.07 368.33 328.33 370.61 328.35 372.91C327.26 385.42 312.7 385.72 303.46 383.5C299.68 382.38 296.12 380.61 292.93 378.29Z" fill="#FFFFFF" fill-opacity="1.000000" fill-rule="nonzero"/>
	<path id="Vector" d="M289.44 375.11C288.54 373.79 287.93 372.31 287.63 370.74C287.32 369.18 287.35 367.57 287.69 366.02C288.39 362.92 289.39 359.9 290.68 357C297.05 340.31 295.84 322 302.06 305.15C303.16 302.17 304.38 298.32 306.4 295.85C308.55 293.63 310.98 291.69 313.64 290.11C323.32 283.56 336.99 278.95 346.66 288.05C351.88 292.96 352.98 300.81 352.8 307.97C352.58 317.95 350.52 327.79 346.73 337.02C345.84 339.16 344.51 341.08 342.83 342.67C341.15 344.27 339.16 345.49 336.98 346.26C333.13 347.63 331.42 347.22 329.65 350.94C327.65 355.72 326.94 360.94 327.57 366.09C328.07 368.33 328.33 370.61 328.35 372.91C327.26 385.42 312.7 385.72 303.46 383.5C299.68 382.38 296.12 380.61 292.93 378.29C291.62 377.39 290.45 376.32 289.44 375.11Z" stroke="#18216D" stroke-opacity="1.000000" stroke-width="1.000000"/>
	<path id="Vector" d="M386.45 333.8C387.29 331.9 388.51 330.18 390.03 328.75C393.14 326.11 396.56 323.85 400.22 322.03C400.4 321.9 400.61 321.81 400.83 321.76C401.05 321.71 401.27 321.71 401.49 321.75C401.72 321.87 401.9 322.05 402 322.29C402.1 322.52 402.12 322.78 402.05 323.02C401.9 323.51 401.64 323.95 401.29 324.31L398.79 327.28C395.81 330.83 402.73 328.64 403.84 328.22C406.95 327.09 409.83 325.4 412.32 323.21C413.18 322.42 414.09 321.69 415.05 321.03C416.3 320.19 417.82 319.83 419.31 320.02C420.34 320.28 421.27 320.87 421.94 321.69C422.62 322.51 423.02 323.53 423.08 324.59C423.31 329.31 419.15 334.53 415.76 336.87C411.99 339.5 407.75 341.38 403.26 342.41C402.87 342.5 402.5 342.69 402.2 342.96C401.91 343.24 401.69 343.59 401.59 343.98L389.62 387.29C388.4 391.86 386.92 396.35 385.18 400.75C383.23 405.66 380.46 410.5 375.07 412.1C373.18 412.64 371.17 412.69 369.25 412.24C367.33 411.79 365.55 410.87 364.09 409.55C354.67 401.05 364.73 383.85 368.25 374.87C371.57 366.47 375.11 358.16 378.88 349.94C380.76 345.84 382.71 341.75 384.72 337.66C385.35 336.29 385.87 334.99 386.45 333.8Z" fill="#FFFFFF" fill-opacity="1.000000" fill-rule="nonzero"/>
	<path id="Vector" d="M390.03 328.75C393.14 326.11 396.56 323.85 400.22 322.03C400.4 321.9 400.61 321.81 400.83 321.76C401.05 321.71 401.27 321.71 401.49 321.75C401.72 321.87 401.9 322.05 402 322.29C402.1 322.52 402.12 322.78 402.05 323.02C401.9 323.51 401.64 323.95 401.29 324.31L398.79 327.28C395.81 330.83 402.73 328.64 403.84 328.22C406.95 327.09 409.83 325.4 412.32 323.21C413.18 322.42 414.09 321.69 415.05 321.03C416.3 320.19 417.82 319.83 419.31 320.02C420.34 320.28 421.27 320.87 421.94 321.69C422.62 322.51 423.02 323.53 423.08 324.59C423.31 329.31 419.15 334.53 415.76 336.87C411.99 339.5 407.75 341.38 403.26 342.41C402.87 342.5 402.5 342.69 402.2 342.96C401.91 343.24 401.69 343.59 401.59 343.98L389.62 387.29C388.4 391.86 386.92 396.35 385.18 400.75C383.23 405.66 380.46 410.5 375.07 412.1C373.18 412.64 371.17 412.69 369.25 412.24C367.33 411.79 365.55 410.87 364.09 409.55C354.67 401.05 364.73 383.85 368.25 374.87C371.57 366.47 375.11 358.16 378.88 349.94C380.76 345.84 382.71 341.75 384.72 337.66C385.35 336.29 385.87 334.99 386.45 333.8C387.29 331.9 388.51 330.18 390.03 328.75Z" stroke="#18216D" stroke-opacity="1.000000" stroke-width="1.000000"/>
	<path id="Vector" d="M297.08 290.9C298.5 289.35 300.01 287.89 301.59 286.51C298.99 284.72 296.54 281.71 297.5 278.69C298.07 277.22 299.13 276 300.5 275.22C302.24 274.1 304.19 273.35 306.24 273.02C308.28 272.69 310.37 272.78 312.37 273.3C315.94 274.39 319.18 276.36 321.8 279.02C322.18 279.43 322.65 279.75 323.17 279.95C323.58 280.02 324 280.02 324.41 279.95L337.26 278.7C340.6 278.26 343.98 278.19 347.33 278.47C352.54 279.1 358.18 281.75 358.66 287.52C359.14 293.29 354.92 298.43 349.92 300.9C344.59 303.47 338.46 303.63 332.55 303.7C326.65 303.77 320.53 303.84 315.13 306.25C312.71 307.16 310.72 308.96 309.58 311.29C309.02 312.65 308.8 314.51 307.43 315.19C305.35 316.25 305.1 316.4 304.29 318.68C303.37 321.33 302.3 323.95 301.17 326.53C300.04 329.11 296.6 334.72 293.12 331.88C290.53 329.78 290.8 320.96 290.65 317.81C290.27 310.52 290.5 300.74 294.47 294.34C295.24 293.12 296.11 291.97 297.08 290.9Z" fill="#18216D" fill-opacity="1.000000" fill-rule="nonzero"/>
	<path id="Vector" d="M338.94 332.36C338.53 332.52 338.1 332.6 337.66 332.58C337.22 332.56 336.79 332.45 336.4 332.25C335.84 332 335.04 332.55 335.49 333.17C335.98 333.87 336.71 334.35 337.54 334.53C338.37 334.7 339.24 334.55 339.96 334.12C341.12 333.45 340.11 331.82 338.94 332.36Z" fill="#18216D" fill-opacity="1.000000" fill-rule="nonzero"/>
	<path id="Vector" d="M330.18 316.15C329.03 315.42 326.5 317.29 328.71 318.27C329.61 318.67 330.94 317.76 330.62 316.73C330.55 316.49 330.4 316.28 330.18 316.15Z" fill="#18216D" fill-opacity="1.000000" fill-rule="nonzero"/>
	<path id="Vector" d="M349.2 315.64C348.94 315.44 348.63 315.33 348.3 315.33C347.97 315.33 347.66 315.44 347.4 315.64C347.23 315.82 347.12 316.05 347.1 316.3C347.08 316.55 347.15 316.8 347.29 317.01C347.33 317.17 347.4 317.32 347.48 317.47C347.59 317.64 347.77 317.77 347.97 317.82C348.17 317.88 348.38 317.85 348.56 317.76C348.81 317.64 349.02 317.47 349.2 317.26C349.37 317.05 349.5 316.8 349.57 316.54C349.61 316.37 349.6 316.19 349.53 316.03C349.47 315.87 349.35 315.73 349.2 315.64Z" fill="#18216D" fill-opacity="1.000000" fill-rule="nonzero"/>
	<path id="Vector" d="M341.27 317.59C341.11 317.1 340.24 316.96 340.14 317.59C339.91 319.33 339.57 321.06 339.1 322.75C338.79 323.88 338.14 325.38 338.85 326.48C339.42 327.35 341.06 326.8 340.63 325.72C340.21 324.65 341.19 322.38 341.4 321.21C341.66 320.01 341.62 318.77 341.27 317.59Z" fill="#18216D" fill-opacity="1.000000" fill-rule="nonzero"/>
	<path id="Vector" d="M302.47 315.93C301.45 316.04 300.49 316.4 299.66 316.99C298.65 317.54 297.8 318.34 297.19 319.31C296.38 320.6 295.97 322.1 296.01 323.62C296.06 325.14 296.55 326.61 297.43 327.85C298.3 328.96 299.57 329.69 300.97 329.89C302.36 330.08 303.78 329.73 304.92 328.9C309.55 325.62 310.11 315.16 302.47 315.93Z" fill="#FFFFFF" fill-opacity="1.000000" fill-rule="nonzero"/>
	<path id="Vector" d="M303.59 320.46C303.13 320.5 302.69 320.64 302.3 320.88C301.91 321.11 301.58 321.44 301.33 321.82C301.04 322.2 300.85 322.66 300.8 323.15C300.75 323.63 300.84 324.11 301.05 324.55C301.12 324.69 301.24 324.79 301.38 324.84C301.53 324.89 301.69 324.88 301.82 324.81C302.19 324.62 302.11 324.1 302.14 323.75C302.15 323.26 302.3 322.79 302.58 322.39C302.87 322 303.26 321.7 303.72 321.54C304.27 321.32 304.19 320.39 303.59 320.46Z" fill="#18216D" fill-opacity="1.000000" fill-rule="nonzero"/>
	<path id="Vector" d="M309.89 341.12C307.04 339.14 303.42 334.83 303.72 330.86L303.34 330.75C302.1 330.46 300.9 330.04 299.75 329.49C299.92 329.57 299.75 335.52 299.87 336.18C300.14 338.54 300.64 340.88 301.36 343.15C302.24 345.88 304.42 353.83 308.7 351.34C310.78 350.14 312.8 348.88 314.83 347.6C315.91 346.92 316.96 346.23 318.04 345.54L318.39 345.33C315.4 344.27 312.54 342.86 309.89 341.12Z" fill="#18216D" fill-opacity="1.000000" fill-rule="nonzero"/>
	<path id="Vector" d="M398.11 328.59C398.06 328.5 397.99 328.43 397.91 328.39C397.82 328.35 397.72 328.34 397.62 328.37C397.53 328.4 397.45 328.45 397.4 328.53C397.34 328.61 397.32 328.71 397.33 328.81C397.47 329.76 397.43 330.74 397.19 331.67C396.96 332.61 396.54 333.49 395.96 334.27C395.64 334.74 396.33 335.21 396.73 334.85C397.56 334.07 398.13 333.05 398.38 331.93C398.63 330.82 398.53 329.65 398.11 328.59Z" fill="#18216D" fill-opacity="1.000000" fill-rule="nonzero"/>
	<path id="Vector" d="M401.71 337.12C399.93 336.7 398.07 336.89 396.41 337.65C395.01 338.17 393.85 339.19 393.14 340.5C393.11 340.58 393.11 340.67 393.13 340.76C393.16 340.84 393.22 340.91 393.3 340.95C393.37 341 393.46 341.01 393.55 341C393.63 340.98 393.71 340.94 393.77 340.87C394.75 339.58 396.18 338.71 397.78 338.44C399.14 338.37 400.48 338.14 401.79 337.76C402.09 337.61 401.97 337.23 401.71 337.12Z" fill="#18216D" fill-opacity="1.000000" fill-rule="nonzero"/>
	<path id="Vector" d="M432.4 244.44L432.4 395.9L219.53 395.9L219.53 244.44L432.4 244.44Z" stroke="#18216D" stroke-opacity="1.000000" stroke-width="1.000000"/>
	<path id="Vector" d="M227.11 231.16L424.85 231.16C427.02 231.16 429.1 232.03 430.64 233.56C432.18 235.1 433.04 237.18 433.04 239.35L433.04 249.61L218.88 249.61L218.88 239.35C218.88 238.27 219.09 237.2 219.5 236.21C219.92 235.21 220.52 234.31 221.29 233.55C222.05 232.79 222.96 232.18 223.96 231.78C224.96 231.37 226.03 231.16 227.11 231.16Z" fill="#18216D" fill-opacity="1.000000" fill-rule="nonzero"/>
	<path id="Vector" d="M235.5 241.34C235.5 244.13 233.24 246.39 230.45 246.39C227.66 246.39 225.4 244.13 225.4 241.34C225.4 238.55 227.66 236.29 230.45 236.29C233.24 236.29 235.5 238.55 235.5 241.34Z" fill="#FFFFFF" fill-opacity="1.000000" fill-rule="evenodd"/>
	<path id="Vector" d="M254.1 241.11C254.14 242.11 253.88 243.09 253.37 243.94C252.85 244.79 252.09 245.47 251.19 245.89C250.29 246.31 249.28 246.45 248.3 246.3C247.31 246.15 246.4 245.71 245.66 245.04C244.93 244.36 244.41 243.49 244.17 242.52C243.94 241.55 243.99 240.54 244.33 239.6C244.67 238.67 245.28 237.85 246.09 237.27C246.89 236.68 247.85 236.34 248.84 236.29C250.18 236.24 251.48 236.71 252.46 237.62C253.45 238.52 254.04 239.78 254.1 241.11Z" fill="#FFFFFF" fill-opacity="1.000000" fill-rule="nonzero"/>
	<path id="Vector" d="M254.1 241.11C254.14 242.11 253.88 243.09 253.37 243.94C252.85 244.79 252.09 245.47 251.19 245.89C250.29 246.31 249.28 246.45 248.3 246.3C247.31 246.15 246.4 245.71 245.66 245.04C244.93 244.36 244.41 243.49 244.17 242.52C243.94 241.55 243.99 240.54 244.33 239.6C244.67 238.67 245.28 237.85 246.09 237.27C246.89 236.68 247.85 236.34 248.84 236.29C250.18 236.24 251.48 236.71 252.46 237.62C253.45 238.52 254.04 239.78 254.1 241.11Z" fill="#FFFFFF" fill-opacity="1.000000" fill-rule="nonzero"/>
	<path id="Vector" d="M243.19 235.2L254.93 247.48" stroke="#18216D" stroke-opacity="1.000000" stroke-width="1.000000"/>
	<path id="Vector" d="M242.92 247.21L255.2 235.46" stroke="#18216D" stroke-opacity="1.000000" stroke-width="1.000000"/>
	<path id="Vector" d="M411.4 223.92L428.04 203.4L434.59 223.92L448.99 202.71L455.74 223.92L469.89 203.05L476.55 223.92L490.13 203.91" stroke="#18216D" stroke-opacity="1.000000" stroke-width="1.000000"/>
	<path id="Vector" d="M182.16 383.57L198.81 363.04L205.36 383.57L219.75 362.36L226.51 383.57L240.67 362.7L247.31 383.57" stroke="#00ECD0" stroke-opacity="1.000000" stroke-width="2.000000"/>
	<path id="Vector" d="M283 477.84C283.37 476.79 283.99 475.85 284.81 475.09C285.62 474.34 286.61 473.79 287.69 473.51C288.77 473.23 289.9 473.21 290.98 473.46C292.07 473.72 293.07 474.23 293.91 474.96L294.34 475.32C295.21 476.07 296.26 476.58 297.39 476.82C298.51 477.05 299.68 477 300.78 476.66C301.88 476.32 302.88 475.7 303.68 474.88C304.48 474.05 305.06 473.03 305.36 471.92L307.53 463.62C307.83 462.51 308.41 461.49 309.2 460.66C310 459.83 311 459.22 312.1 458.88C313.2 458.54 314.37 458.48 315.5 458.71C316.63 458.95 317.68 459.46 318.56 460.21L318.81 460.44C319.69 461.19 320.74 461.71 321.87 461.94C322.99 462.18 324.16 462.12 325.26 461.78C326.36 461.44 327.36 460.83 328.16 460C328.96 459.17 329.54 458.16 329.84 457.05L331.89 449.23C332.19 448.11 332.76 447.09 333.56 446.27C334.36 445.44 335.36 444.82 336.46 444.48C337.56 444.14 338.73 444.08 339.86 444.32C340.99 444.55 342.04 445.07 342.91 445.82C343.79 446.56 344.84 447.08 345.96 447.32C347.09 447.55 348.26 447.49 349.36 447.16C350.46 446.82 351.46 446.2 352.26 445.38C353.06 444.55 353.64 443.53 353.94 442.42" stroke="#18216D" stroke-opacity="1.000000" stroke-width="1.000000"/>
	<path id="Vector" d="M0.94 434.35C1.31 433.3 1.93 432.35 2.75 431.6C3.57 430.84 4.56 430.3 5.63 430.02C6.71 429.73 7.84 429.72 8.92 429.97C10.01 430.22 11.01 430.74 11.85 431.47L12.28 431.82C13.15 432.57 14.2 433.09 15.33 433.32C16.46 433.56 17.63 433.5 18.73 433.16C19.83 432.82 20.82 432.21 21.62 431.38C22.42 430.55 23 429.54 23.3 428.42L25.47 420.13C25.77 419.02 26.35 418 27.15 417.17C27.95 416.34 28.94 415.72 30.04 415.38C31.15 415.04 32.31 414.99 33.44 415.22C34.57 415.45 35.62 415.97 36.5 416.72L36.76 416.95C37.63 417.7 38.68 418.21 39.81 418.45C40.94 418.68 42.11 418.63 43.21 418.29C44.31 417.95 45.3 417.34 46.1 416.51C46.9 415.68 47.48 414.66 47.78 413.55L49.83 405.73" stroke="#00ECD0" stroke-opacity="1.000000" stroke-width="2.000000"/>
	<path id="Vector" d="M399.5 0.93C400.54 0.54 401.65 0.41 402.75 0.55C403.85 0.69 404.89 1.1 405.8 1.73C406.71 2.37 407.45 3.21 407.95 4.2C408.46 5.18 408.72 6.28 408.71 7.38L408.71 7.94C408.7 9.09 408.98 10.23 409.53 11.24C410.08 12.25 410.87 13.11 411.84 13.73C412.81 14.35 413.92 14.72 415.07 14.8C416.22 14.88 417.37 14.66 418.41 14.18L426.16 10.48C427.2 9.99 428.35 9.78 429.5 9.86C430.65 9.94 431.76 10.3 432.73 10.93C433.7 11.55 434.49 12.41 435.04 13.42C435.59 14.43 435.87 15.57 435.86 16.72L435.86 17.08C435.85 18.24 436.14 19.37 436.68 20.38C437.23 21.39 438.03 22.25 439 22.87C439.96 23.5 441.07 23.86 442.22 23.94C443.37 24.02 444.52 23.81 445.56 23.32L452.86 19.84C453.91 19.35 455.06 19.14 456.21 19.21C457.36 19.29 458.47 19.66 459.44 20.28C460.41 20.9 461.21 21.76 461.76 22.77C462.31 23.79 462.59 24.92 462.58 26.08C462.57 27.23 462.86 28.36 463.4 29.37C463.95 30.38 464.74 31.24 465.71 31.86C466.68 32.48 467.78 32.85 468.93 32.93C470.08 33.01 471.22 32.8 472.27 32.31" stroke="#18216D" stroke-opacity="1.000000" stroke-width="1.000000"/>
	<path id="Vector" d="M473.63 327.07C471.53 324.63 469.93 321.79 468.93 318.72C467.92 315.66 467.53 312.43 467.78 309.21C468.02 305.99 468.9 302.86 470.36 299.98C471.82 297.1 473.83 294.54 476.27 292.44C481.22 288.19 487.64 286.09 494.14 286.58C500.63 287.08 506.67 290.13 510.91 295.08" stroke="#00ECD0" stroke-opacity="1.000000" stroke-width="2.000000"/>
	<path id="Vector" d="M689.61 26.12C689.61 33.28 683.8 39.08 676.65 39.08C669.49 39.08 663.68 33.28 663.68 26.12C663.68 18.96 669.49 13.15 676.65 13.15C683.8 13.15 689.61 18.96 689.61 26.12Z" fill="#005FEC" fill-opacity="1.000000" fill-rule="evenodd"/>
	<path id="Vector" d="M712.9 376.89C716.74 376.89 720.54 377.65 724.08 379.12C727.63 380.59 730.85 382.74 733.56 385.46C736.28 388.17 738.43 391.39 739.89 394.94C741.36 398.48 742.12 402.28 742.11 406.12" fill="#FFFFFF" fill-opacity="1.000000" fill-rule="nonzero"/>
	<path id="Vector" d="M712.9 376.89C716.74 376.89 720.54 377.65 724.08 379.12C727.63 380.59 730.85 382.74 733.56 385.46C736.28 388.17 738.43 391.39 739.89 394.94C741.36 398.48 742.12 402.28 742.11 406.12" stroke="#18216D" stroke-opacity="1.000000" stroke-width="1.000000"/>
	<path id="Vector" d="M730.54 3.6L689.61 44.54" stroke="#18216D" stroke-opacity="1.000000" stroke-width="1.000000"/>
	<rect id="Rectangle 240" x="255.314453" y="178.934509" width="177.386932" height="23.196753" fill="#FFFFFF" fill-opacity="1.000000"/>
	<rect id="Rectangle 241" x="222.566040" y="396.574615" width="169.199844" height="28.654812" fill="#FFFFFF" fill-opacity="1.000000"/>
	<rect id="Rectangle 242" x="490.010986" y="231.468353" width="222.415924" height="42.299961" fill="#FFFFFF" fill-opacity="1.000000"/>
	<path id="Vector" d="M678.02 260.81L702.9 240.31L709.43 260.81L731.33 239.62L738.09 260.81L759.63 239.96L766.28 260.81L786.94 240.81" stroke="#00ECD0" stroke-opacity="1.000000" stroke-width="2.000000"/>
	<path id="Vector" d="M564.75 253.99L523.82 294.93" stroke="#18216D" stroke-opacity="1.000000" stroke-width="1.000000"/>
	<path id="Vector" d="M553.84 273.1L512.9 314.03" stroke="#18216D" stroke-opacity="1.000000" stroke-width="1.000000"/>
</svg>
