<svg width="1110.000000" height="34.882141" viewBox="0 0 1110 34.8821" fill="none" xmlns="http://www.w3.org/2000/svg" xmlns:xlink="http://www.w3.org/1999/xlink">
	<desc>
			Created with Pixso.
	</desc>
	<defs>
		<clipPath id="clip46_979">
			<rect id="Airbnb Logo" rx="-0.500000" width="111.121216" height="33.882156" transform="translate(0.500000 0.500000)" fill="white" fill-opacity="0"/>
		</clipPath>
		<clipPath id="clip46_981">
			<rect id="Hubspot Logo" rx="-0.500000" width="103.646461" height="28.898991" transform="translate(192.351807 2.991577)" fill="white" fill-opacity="0"/>
		</clipPath>
		<clipPath id="clip46_992">
			<rect id="Google Logo" rx="-0.500000" width="103.646461" height="33.882156" transform="translate(376.729004 0.500000)" fill="white" fill-opacity="0"/>
		</clipPath>
		<clipPath id="clip46_999">
			<rect id="Microsoft Logo" rx="-0.500000" width="150.986526" height="31.390572" transform="translate(561.106079 1.745789)" fill="white" fill-opacity="0"/>
		</clipPath>
		<clipPath id="clip46_1005">
			<rect id="Walmart Logo" rx="-0.500000" width="137.282822" height="31.390572" transform="translate(792.823242 1.745789)" fill="white" fill-opacity="0"/>
		</clipPath>
		<clipPath id="clip46_1008">
			<rect id="FedEx Logo" rx="-0.500000" width="98.663300" height="28.898991" transform="translate(1010.836670 2.991577)" fill="white" fill-opacity="0"/>
		</clipPath>
	</defs>
	<rect id="Airbnb Logo" rx="-0.500000" width="111.121216" height="33.882156" transform="translate(0.500000 0.500000)" fill="#FFFFFF" fill-opacity="0"/>
	<g clip-path="url(#clip46_979)">
		<path id="Vector" d="M32.14 24.72C31.96 24.29 31.8 23.84 31.62 23.46L30.81 21.64L30.77 21.61C28.35 16.38 25.77 11.06 23.03 5.83L22.92 5.61C22.65 5.1 22.37 4.53 22.09 4.01C21.74 3.38 21.4 2.72 20.84 2.09C20.29 1.43 19.6 0.89 18.82 0.53C18.04 0.16 17.19 -0.03 16.33 -0.03C15.47 -0.03 14.62 0.16 13.84 0.53C13.06 0.89 12.37 1.43 11.82 2.09C11.31 2.72 10.92 3.38 10.57 4.01C10.29 4.57 10.02 5.13 9.73 5.64L9.62 5.86C6.93 11.09 4.3 16.41 1.89 21.64L1.82 21.71C1.58 22.28 1.29 22.86 1.02 23.5C0.84 23.88 0.66 24.29 0.49 24.75C0.01 25.95 -0.14 27.25 0.05 28.52C0.24 29.8 0.75 31 1.55 32.02C2.35 33.03 3.4 33.83 4.6 34.32C5.81 34.81 7.12 34.98 8.4 34.81C9.64 34.65 10.83 34.24 11.9 33.61C13.33 32.82 14.7 31.66 16.24 29.99C17.78 31.66 19.19 32.82 20.58 33.62C21.93 34.4 23.45 34.84 25 34.88C26.8 34.88 28.55 34.24 29.91 33.08C31.28 31.91 32.17 30.29 32.42 28.52C32.72 27.25 32.62 25.92 32.14 24.71L32.14 24.72ZM16.35 26.53C14.46 24.13 13.23 21.93 12.81 20.04C12.64 19.34 12.6 18.62 12.7 17.9C12.78 17.35 12.99 16.86 13.27 16.44C13.93 15.49 15.09 14.91 16.35 14.91C16.95 14.89 17.55 15.02 18.08 15.28C18.62 15.55 19.08 15.95 19.43 16.43C19.71 16.87 19.92 17.35 19.99 17.9C20.1 18.54 20.06 19.27 19.88 20.04C19.46 21.89 18.23 24.12 16.35 26.53ZM30.36 28.14C30.23 29.04 29.87 29.89 29.31 30.61C28.75 31.32 28.01 31.88 27.17 32.23C26.33 32.58 25.41 32.67 24.51 32.58C23.63 32.47 22.75 32.18 21.85 31.66C20.35 30.74 19 29.6 17.86 28.28C20.17 25.45 21.56 22.86 22.09 20.56C22.34 19.47 22.37 18.49 22.26 17.59C22.13 16.73 21.81 15.91 21.32 15.19C20.77 14.41 20.02 13.77 19.16 13.34C18.3 12.9 17.35 12.69 16.38 12.7C14.35 12.7 12.54 13.64 11.44 15.18C10.94 15.9 10.62 16.72 10.5 17.59C10.36 18.5 10.39 19.52 10.68 20.56C11.21 22.86 12.64 25.48 14.91 28.3C13.78 29.65 12.43 30.8 10.92 31.7C10.01 32.23 9.14 32.5 8.26 32.61C6.89 32.78 5.51 32.41 4.42 31.58C3.32 30.75 2.6 29.53 2.41 28.17C2.3 27.3 2.38 26.43 2.73 25.45C2.84 25.1 3.01 24.75 3.18 24.34C3.42 23.77 3.71 23.18 3.98 22.59L4.03 22.52C6.4 17.32 9 12.01 11.69 6.81L11.8 6.59C12.08 6.07 12.35 5.51 12.64 4.99C12.92 4.43 13.23 3.9 13.62 3.46C13.97 3.06 14.4 2.73 14.88 2.51C15.36 2.28 15.89 2.17 16.42 2.17C16.96 2.17 17.48 2.28 17.97 2.51C18.45 2.73 18.88 3.06 19.22 3.46C19.6 3.9 19.92 4.43 20.21 4.99C20.48 5.51 20.76 6.08 21.04 6.59L21.15 6.81C23.84 12.01 26.43 17.32 28.85 22.52L28.88 22.55C29.17 23.11 29.41 23.75 29.68 24.29C29.86 24.72 30.04 25.05 30.15 25.41C30.36 26.4 30.47 27.27 30.36 28.14ZM45.66 26.29C44.83 26.3 44.01 26.13 43.26 25.78C42.5 25.43 41.84 24.93 41.31 24.29C40.13 22.94 39.5 21.2 39.56 19.41C39.54 17.58 40.19 15.81 41.38 14.42C41.93 13.77 42.62 13.26 43.4 12.91C44.17 12.56 45.01 12.38 45.87 12.39C46.67 12.37 47.46 12.55 48.17 12.91C48.88 13.28 49.49 13.82 49.93 14.48L50.04 12.77L53.25 12.77L53.25 25.94L50.03 25.94L49.92 24.02C49.46 24.73 48.83 25.31 48.09 25.7C47.34 26.1 46.5 26.3 45.66 26.29ZM46.49 23.15C47.13 23.15 47.69 22.97 48.22 22.66C48.7 22.31 49.1 21.85 49.4 21.29C49.68 20.74 49.82 20.07 49.82 19.33C49.87 18.69 49.74 18.04 49.46 17.46C49.17 16.88 48.74 16.38 48.21 16.02C47.69 15.7 47.1 15.53 46.49 15.53C45.89 15.53 45.29 15.7 44.78 16.02C44.29 16.37 43.9 16.82 43.59 17.38C43.3 17.99 43.16 18.67 43.17 19.34C43.13 19.99 43.26 20.63 43.54 21.21C43.82 21.79 44.25 22.29 44.79 22.66C45.3 22.97 45.87 23.15 46.49 23.15ZM58.75 9.22C58.75 9.6 58.68 9.95 58.51 10.23C58.33 10.5 58.09 10.75 57.77 10.93C57.45 11.1 57.11 11.17 56.76 11.17C56.41 11.17 56.06 11.1 55.74 10.93C55.43 10.76 55.18 10.52 55 10.23C54.83 9.92 54.75 9.57 54.76 9.22C54.76 8.82 54.84 8.47 55 8.2C55.18 7.88 55.43 7.68 55.74 7.5C56.06 7.33 56.4 7.25 56.76 7.25C57.11 7.25 57.45 7.33 57.76 7.49C58.07 7.66 58.33 7.9 58.52 8.19C58.68 8.51 58.76 8.86 58.75 9.22ZM55.01 25.89L55.01 12.75L58.51 12.75L58.51 25.92L55 25.92L55.01 25.89ZM67.85 16.19L67.85 16.24C67.68 16.16 67.47 16.13 67.3 16.09C67.08 16.05 66.9 16.05 66.7 16.05C65.72 16.05 64.98 16.33 64.5 16.92C63.97 17.52 63.73 18.36 63.73 19.44L63.73 25.91L60.22 25.91L60.22 12.74L63.44 12.74L63.55 14.73C63.9 14.03 64.32 13.51 64.91 13.12C65.51 12.74 66.2 12.55 66.9 12.57C67.16 12.57 67.4 12.6 67.61 12.64C67.72 12.67 67.78 12.67 67.85 12.7L67.85 16.19ZM69.26 25.89L69.26 7.34L72.75 7.34L72.75 14.43C73.25 13.79 73.81 13.3 74.51 12.92C75.62 12.38 76.89 12.23 78.1 12.49C79.32 12.75 80.4 13.4 81.19 14.35C82.38 15.7 83.01 17.45 82.95 19.24C82.97 21.07 82.32 22.85 81.13 24.24C80.58 24.88 79.89 25.39 79.11 25.74C78.34 26.09 77.5 26.27 76.64 26.26C75.84 26.29 75.05 26.11 74.34 25.74C73.63 25.37 73.02 24.83 72.58 24.17L72.47 25.88L69.26 25.92L69.26 25.89ZM76.02 23.15C76.64 23.15 77.2 22.97 77.73 22.66C78.22 22.31 78.61 21.85 78.92 21.29C79.2 20.74 79.34 20.07 79.34 19.33C79.34 18.6 79.2 17.94 78.92 17.38C78.63 16.84 78.22 16.38 77.73 16.02C77.22 15.7 76.62 15.53 76.02 15.53C75.41 15.53 74.82 15.7 74.3 16.02C73.81 16.37 73.42 16.82 73.1 17.38C72.81 17.99 72.67 18.67 72.69 19.34C72.64 19.99 72.77 20.63 73.05 21.21C73.34 21.79 73.77 22.29 74.3 22.66C74.82 22.97 75.38 23.15 76.02 23.15ZM84.27 25.91L84.27 12.74L87.49 12.74L87.6 14.45C88.01 13.79 88.58 13.26 89.27 12.89C89.95 12.53 90.72 12.36 91.49 12.39C92.38 12.37 93.25 12.62 94 13.09C94.74 13.56 95.33 14.24 95.69 15.05C96.08 15.88 96.29 16.9 96.29 18.05L96.29 25.94L92.78 25.94L92.78 18.5C92.78 17.59 92.57 16.87 92.15 16.33C91.74 15.81 91.16 15.53 90.44 15.53C89.91 15.53 89.45 15.64 89.04 15.88C88.66 16.13 88.34 16.44 88.1 16.89C87.85 17.34 87.73 17.85 87.75 18.36L87.75 25.91L84.27 25.91ZM98.03 25.91L98.03 7.33L101.54 7.33L101.54 14.42C102.02 13.78 102.63 13.26 103.35 12.91C104.06 12.55 104.84 12.36 105.64 12.36C106.47 12.34 107.29 12.52 108.04 12.86C108.79 13.21 109.46 13.72 109.98 14.35C111.16 15.7 111.78 17.45 111.73 19.23C111.75 21.06 111.1 22.84 109.91 24.23C109.35 24.87 108.67 25.38 107.89 25.73C107.12 26.08 106.27 26.26 105.42 26.25C104.62 26.28 103.83 26.1 103.12 25.73C102.4 25.36 101.8 24.82 101.35 24.16L101.26 25.87L98.03 25.91ZM104.83 23.15C105.47 23.15 106.03 22.97 106.54 22.66C107.04 22.31 107.42 21.85 107.74 21.29C108.02 20.74 108.16 20.07 108.16 19.33C108.2 18.69 108.08 18.04 107.79 17.46C107.51 16.88 107.08 16.38 106.54 16.02C106.03 15.7 105.43 15.53 104.83 15.53C104.22 15.53 103.63 15.7 103.11 16.02C102.63 16.37 102.23 16.82 101.93 17.38C101.62 17.99 101.48 18.66 101.51 19.34C101.47 19.99 101.59 20.63 101.88 21.21C102.16 21.79 102.59 22.29 103.12 22.66C103.64 22.97 104.17 23.15 104.83 23.15Z" fill="#FF385C" fill-opacity="1.000000" fill-rule="nonzero"/>
	</g>
	<rect id="Hubspot Logo" rx="-0.500000" width="103.646461" height="28.898991" transform="translate(192.351807 2.991577)" fill="#FFFFFF" fill-opacity="0"/>
	<g clip-path="url(#clip46_981)">
		<path id="Vector" d="M203.18 7.44L203.18 15.87L195.5 15.87L195.5 7.44L191.85 7.44L191.85 27.57L195.5 27.57L195.5 19.41L203.18 19.41L203.18 27.57L206.83 27.57L206.83 7.44L203.18 7.44Z" fill="#33475B" fill-opacity="1.000000" fill-rule="nonzero"/>
		<path id="Vector" d="M218.5 21.06C218.5 21.87 218.19 22.64 217.62 23.21C217.05 23.78 216.29 24.1 215.49 24.1C214.69 24.1 213.92 23.78 213.35 23.21C212.79 22.64 212.47 21.87 212.47 21.06L212.47 12.44L209.01 12.44L209.01 21.06C209.01 22.79 209.69 24.45 210.9 25.67C212.12 26.9 213.76 27.58 215.48 27.58C217.2 27.58 218.84 26.9 220.06 25.67C221.27 24.45 221.95 22.79 221.95 21.06L221.95 12.44L218.5 12.44L218.5 21.06Z" fill="#33475B" fill-opacity="1.000000" fill-rule="nonzero"/>
		<path id="Vector" d="M244.14 13.33C244.14 11.56 245.3 11 246.57 11C247.6 11 248.95 11.78 249.84 12.74L252.1 10.04C250.97 8.5 248.68 7.44 246.8 7.44C243.04 7.44 240.33 9.65 240.33 13.33C240.33 20.14 248.59 17.98 248.59 21.79C248.59 22.97 247.46 24.01 246.16 24.01C244.12 24.01 243.45 23 242.51 21.93L240 24.57C241.61 26.56 243.59 27.57 245.97 27.57C249.54 27.57 252.4 25.33 252.4 21.82C252.4 14.26 244.14 16.61 244.14 13.33L244.14 13.33Z" fill="#33475B" fill-opacity="1.000000" fill-rule="nonzero"/>
		<path id="Vector" d="M295.28 24.35C293.23 24.35 292.65 23.46 292.65 22.09L292.65 16.05L295.83 16.05L295.83 12.99L292.65 12.99L292.65 8.95L289.14 10.53L289.14 22.85C289.14 26 291.3 27.58 294.25 27.58C294.72 27.59 295.18 27.55 295.64 27.47L296.49 24.29C296.11 24.32 295.66 24.35 295.28 24.35L295.28 24.35Z" fill="#33475B" fill-opacity="1.000000" fill-rule="nonzero"/>
		<path id="Vector" d="M231.68 12.54C229.96 12.54 228.77 13.04 227.61 14.18L227.61 7.56L224.14 7.56L224.14 19.84C224.14 24.44 227.44 27.59 231.15 27.59C235.26 27.59 238.87 24.38 238.87 20.06C238.87 15.8 235.55 12.54 231.68 12.54L231.68 12.54ZM231.65 24.07C230.88 24.07 230.12 23.84 229.47 23.4C228.82 22.97 228.32 22.35 228.02 21.62C227.72 20.9 227.65 20.1 227.8 19.33C227.95 18.56 228.32 17.86 228.87 17.3C229.42 16.75 230.12 16.37 230.89 16.22C231.65 16.07 232.44 16.15 233.16 16.45C233.88 16.75 234.49 17.25 234.92 17.91C235.36 18.56 235.59 19.32 235.59 20.11C235.59 21.16 235.17 22.17 234.44 22.91C233.7 23.65 232.7 24.07 231.65 24.07Z" fill="#33475B" fill-opacity="1.000000" fill-rule="nonzero"/>
		<path id="Vector" d="M269.31 19.88C269.31 15.56 265.7 12.36 261.58 12.36C257.88 12.36 254.58 15.51 254.58 20.11L254.58 32.39L258.04 32.39L258.04 25.76C259.2 26.9 260.4 27.4 262.11 27.4C265.98 27.4 269.31 24.14 269.31 19.88L269.31 19.88ZM266.03 19.84C266.03 20.62 265.8 21.39 265.37 22.04C264.93 22.69 264.32 23.2 263.6 23.5C262.88 23.8 262.09 23.88 261.33 23.72C260.57 23.57 259.86 23.19 259.31 22.64C258.76 22.09 258.39 21.38 258.24 20.61C258.09 19.84 258.16 19.04 258.46 18.32C258.76 17.6 259.26 16.98 259.91 16.54C260.56 16.11 261.32 15.87 262.1 15.87C263.14 15.87 264.14 16.29 264.88 17.03C265.61 17.78 266.03 18.79 266.03 19.84Z" fill="#33475B" fill-opacity="1.000000" fill-rule="nonzero"/>
		<path id="Vector" d="M280.51 12.19L280.51 8.68C280.97 8.46 281.36 8.12 281.63 7.69C281.9 7.26 282.05 6.76 282.05 6.24L282.05 6.16C282.05 5.45 281.77 4.76 281.27 4.25C280.76 3.74 280.08 3.46 279.37 3.46L279.29 3.46C278.58 3.46 277.9 3.74 277.4 4.25C276.89 4.76 276.61 5.45 276.61 6.16L276.61 6.24C276.61 6.76 276.76 7.26 277.03 7.69C277.31 8.12 277.7 8.46 278.16 8.68L278.16 12.19C276.83 12.39 275.59 12.95 274.54 13.79L265 6.29C265.06 6.05 265.1 5.79 265.1 5.53C265.1 4.93 264.93 4.34 264.6 3.84C264.27 3.34 263.79 2.95 263.24 2.72C262.69 2.49 262.08 2.43 261.5 2.54C260.91 2.66 260.37 2.95 259.95 3.37C259.53 3.8 259.24 4.34 259.12 4.93C259 5.52 259.06 6.13 259.29 6.69C259.52 7.25 259.91 7.72 260.4 8.06C260.9 8.39 261.48 8.57 262.08 8.57C262.6 8.57 263.11 8.43 263.57 8.17L272.97 15.54C272.13 16.83 271.68 18.34 271.71 19.88C271.73 21.43 272.21 22.93 273.09 24.19L270.23 27.07C270 27 269.75 26.96 269.51 26.96C269.02 26.96 268.54 27.1 268.13 27.38C267.73 27.65 267.41 28.04 267.22 28.5C267.03 28.96 266.98 29.46 267.08 29.94C267.18 30.43 267.41 30.87 267.76 31.22C268.11 31.57 268.55 31.81 269.03 31.91C269.51 32.01 270.01 31.96 270.46 31.77C270.92 31.58 271.3 31.26 271.57 30.85C271.85 30.44 271.99 29.95 271.99 29.46C271.99 29.21 271.95 28.97 271.88 28.74L274.71 25.89C275.63 26.6 276.7 27.09 277.84 27.33C278.99 27.56 280.16 27.53 281.29 27.23C282.42 26.93 283.46 26.38 284.34 25.61C285.22 24.85 285.92 23.89 286.38 22.81C286.83 21.73 287.04 20.56 286.98 19.39C286.92 18.22 286.59 17.07 286.02 16.05C285.46 15.02 284.67 14.14 283.71 13.47C282.75 12.8 281.66 12.36 280.51 12.19ZM279.33 23.73C278.56 23.73 277.8 23.5 277.16 23.06C276.52 22.63 276.01 22.01 275.72 21.29C275.42 20.57 275.35 19.78 275.5 19.01C275.65 18.25 276.02 17.55 276.57 16.99C277.12 16.44 277.81 16.07 278.57 15.91C279.33 15.76 280.12 15.84 280.84 16.14C281.55 16.44 282.16 16.94 282.59 17.59C283.02 18.24 283.25 19 283.25 19.78C283.25 20.83 282.84 21.83 282.1 22.57C281.37 23.31 280.38 23.73 279.34 23.73L279.33 23.73Z" fill="#FF7A59" fill-opacity="1.000000" fill-rule="nonzero"/>
	</g>
	<rect id="Google Logo" rx="-0.500000" width="103.646461" height="33.882156" transform="translate(376.729004 0.500000)" fill="#FFFFFF" fill-opacity="0"/>
	<g clip-path="url(#clip46_992)">
		<path id="Vector" d="M420.76 17.88C420.76 22.73 416.91 26.29 412.2 26.29C407.48 26.29 403.64 22.73 403.64 17.88C403.64 13.01 407.48 9.47 412.2 9.47C416.91 9.47 420.76 13.01 420.76 17.88ZM417.01 17.88C417.01 14.86 414.78 12.79 412.2 12.79C409.61 12.79 407.38 14.86 407.38 17.88C407.38 20.88 409.61 22.98 412.2 22.98C414.78 22.98 417.01 20.88 417.01 17.88Z" fill="#EA4335" fill-opacity="1.000000" fill-rule="nonzero"/>
		<path id="Vector" d="M439.22 17.88C439.22 22.73 435.38 26.29 430.66 26.29C425.95 26.29 422.1 22.73 422.1 17.88C422.1 13.01 425.95 9.47 430.66 9.47C435.38 9.47 439.22 13.01 439.22 17.88ZM435.48 17.88C435.48 14.86 433.25 12.79 430.66 12.79C428.08 12.79 425.85 14.86 425.85 17.88C425.85 20.88 428.08 22.98 430.66 22.98C433.25 22.98 435.48 20.88 435.48 17.88Z" fill="#FBBC05" fill-opacity="1.000000" fill-rule="nonzero"/>
		<path id="Vector" d="M456.92 9.98L456.92 25.08C456.92 31.29 453.2 33.83 448.81 33.83C444.68 33.83 442.19 31.1 441.25 28.87L444.51 27.53C445.09 28.9 446.51 30.52 448.81 30.52C451.62 30.52 453.36 28.81 453.36 25.59L453.36 24.38L453.23 24.38C452.39 25.4 450.78 26.29 448.74 26.29C444.47 26.29 440.56 22.63 440.56 17.91C440.56 13.17 444.47 9.47 448.74 9.47C450.77 9.47 452.39 10.36 453.23 11.35L453.36 11.35L453.36 9.99L456.92 9.99L456.92 9.98ZM453.63 17.91C453.63 14.95 451.62 12.79 449.07 12.79C446.49 12.79 444.32 14.95 444.32 17.91C444.32 20.84 446.49 22.98 449.07 22.98C451.62 22.98 453.63 20.84 453.63 17.91Z" fill="#4285F4" fill-opacity="1.000000" fill-rule="nonzero"/>
		<path id="Vector" d="M462.79 1.13L462.79 25.78L459.13 25.78L459.13 1.13L462.79 1.13Z" fill="#34A853" fill-opacity="1.000000" fill-rule="nonzero"/>
		<path id="Vector" d="M477.03 20.65L479.94 22.56C479 23.93 476.74 26.29 472.83 26.29C467.98 26.29 464.36 22.6 464.36 17.88C464.36 12.88 468.01 9.47 472.41 9.47C476.84 9.47 479.01 12.94 479.71 14.82L480.1 15.78L468.69 20.43C469.57 22.12 470.93 22.98 472.83 22.98C474.74 22.98 476.06 22.05 477.03 20.65ZM468.08 17.63L475.7 14.51C475.28 13.46 474.02 12.72 472.54 12.72C470.63 12.72 467.98 14.38 468.08 17.63Z" fill="#EA4335" fill-opacity="1.000000" fill-rule="nonzero"/>
		<path id="Vector" d="M389.8 15.7L389.8 12.13L402 12.13C402.12 12.75 402.18 13.49 402.18 14.28C402.18 16.96 401.44 20.27 399.05 22.63C396.72 25.02 393.75 26.29 389.81 26.29C382.5 26.29 376.36 20.43 376.36 13.23C376.36 6.03 382.5 0.17 389.81 0.17C393.85 0.17 396.72 1.74 398.89 3.77L396.33 6.29C394.78 4.86 392.68 3.74 389.8 3.74C384.47 3.74 380.3 7.98 380.3 13.23C380.3 18.49 384.47 22.72 389.8 22.72C393.26 22.72 395.23 21.35 396.49 20.11C397.52 19.1 398.19 17.66 398.45 15.69L389.8 15.7Z" fill="#4285F4" fill-opacity="1.000000" fill-rule="nonzero"/>
	</g>
	<rect id="Microsoft Logo" rx="-0.500000" width="150.986526" height="31.390572" transform="translate(561.106079 1.745789)" fill="#FFFFFF" fill-opacity="0"/>
	<g clip-path="url(#clip46_999)">
		<path id="Vector" d="M614.25 19.9L613.34 22.46L613.27 22.46C613.12 21.88 612.84 21 612.39 19.95L607.53 7.77L602.78 7.77L602.78 27.18L605.92 27.18L605.92 15.2C605.92 14.45 605.92 13.59 605.9 12.54C605.87 12.01 605.82 11.61 605.79 11.31L605.87 11.31C606.02 12.06 606.2 12.62 606.32 12.97L612.16 27.13L614.38 27.13L620.16 12.84C620.29 12.51 620.41 11.86 620.54 11.31L620.62 11.31C620.54 12.74 620.49 14.02 620.46 14.8L620.46 27.1L623.81 27.1L623.81 7.72L619.23 7.72L614.25 19.9ZM626.98 13.19L630.25 13.19L630.25 27.1L626.98 27.1L626.98 13.19ZM628.64 7.32C628.09 7.32 627.64 7.52 627.26 7.87C626.88 8.22 626.68 8.67 626.68 9.23C626.68 9.75 626.88 10.2 627.26 10.56C627.64 10.91 628.09 11.08 628.64 11.08C629.2 11.08 629.67 10.88 630.03 10.56C630.4 10.2 630.61 9.75 630.61 9.23C630.61 8.7 630.4 8.25 630.03 7.87C629.7 7.52 629.22 7.32 628.64 7.32ZM641.85 13.07C641.25 12.94 640.62 12.87 640.02 12.87C638.53 12.87 637.17 13.19 636.04 13.85C634.91 14.5 634 15.4 633.42 16.53C632.82 17.69 632.52 19.02 632.52 20.55C632.52 21.88 632.82 23.06 633.4 24.14C633.98 25.19 634.78 26.05 635.87 26.63C636.9 27.2 638.1 27.5 639.46 27.5C641.02 27.5 642.36 27.18 643.41 26.58L643.44 26.55L643.44 23.54L643.31 23.64C642.84 23.99 642.28 24.29 641.73 24.47C641.15 24.67 640.62 24.77 640.17 24.77C638.86 24.77 637.83 24.39 637.1 23.56C636.34 22.76 635.96 21.65 635.96 20.27C635.96 18.84 636.34 17.71 637.12 16.88C637.9 16.06 638.93 15.63 640.19 15.63C641.25 15.63 642.33 15.98 643.31 16.68L643.44 16.78L643.44 13.59L643.41 13.57C642.99 13.39 642.51 13.19 641.85 13.07ZM652.65 12.97C651.84 12.97 651.09 13.22 650.43 13.75C649.88 14.2 649.5 14.85 649.18 15.63L649.15 15.63L649.15 13.19L645.88 13.19L645.88 27.1L649.15 27.1L649.15 20C649.15 18.79 649.4 17.79 649.96 17.06C650.51 16.31 651.21 15.93 652.07 15.93C652.37 15.93 652.67 16 653.05 16.06C653.4 16.16 653.65 16.26 653.83 16.38L653.96 16.48L653.96 13.22L653.88 13.19C653.65 13.04 653.2 12.97 652.65 12.97ZM661.56 12.89C659.27 12.89 657.43 13.57 656.15 14.9C654.84 16.23 654.21 18.06 654.21 20.37C654.21 22.53 654.86 24.29 656.12 25.57C657.38 26.83 659.09 27.48 661.23 27.48C663.47 27.48 665.26 26.8 666.54 25.45C667.85 24.09 668.48 22.28 668.48 20.05C668.48 17.84 667.87 16.08 666.64 14.8C665.46 13.52 663.72 12.89 661.56 12.89ZM664.17 23.59C663.57 24.37 662.61 24.74 661.43 24.74C660.25 24.74 659.29 24.37 658.61 23.54C657.93 22.76 657.61 21.63 657.61 20.2C657.61 18.72 657.96 17.59 658.61 16.78C659.29 15.98 660.22 15.58 661.41 15.58C662.56 15.58 663.47 15.95 664.12 16.73C664.78 17.51 665.13 18.64 665.13 20.12C665.08 21.63 664.8 22.81 664.17 23.59ZM675.77 18.97C674.74 18.54 674.09 18.21 673.79 17.94C673.53 17.69 673.41 17.34 673.41 16.88C673.41 16.51 673.56 16.13 673.94 15.88C674.31 15.63 674.74 15.5 675.37 15.5C675.93 15.5 676.5 15.6 677.06 15.75C677.61 15.9 678.11 16.13 678.52 16.43L678.64 16.53L678.64 13.47L678.57 13.44C678.19 13.29 677.69 13.14 677.08 13.02C676.48 12.92 675.93 12.87 675.47 12.87C673.91 12.87 672.63 13.24 671.62 14.07C670.62 14.85 670.14 15.9 670.14 17.13C670.14 17.79 670.24 18.37 670.46 18.84C670.69 19.32 671.02 19.77 671.47 20.15C671.92 20.5 672.58 20.9 673.48 21.28C674.24 21.6 674.82 21.86 675.17 22.06C675.52 22.26 675.75 22.48 675.93 22.66C676.05 22.86 676.13 23.11 676.13 23.44C676.13 24.37 675.42 24.82 673.99 24.82C673.43 24.82 672.86 24.72 672.18 24.49C671.5 24.27 670.87 23.94 670.34 23.56L670.21 23.46L670.21 26.65L670.29 26.68C670.77 26.9 671.35 27.05 672.05 27.23C672.75 27.35 673.38 27.45 673.94 27.45C675.62 27.45 677.01 27.08 677.99 26.25C679 25.45 679.52 24.42 679.52 23.09C679.52 22.16 679.27 21.33 678.72 20.7C677.99 20.1 677.08 19.47 675.77 18.97ZM688.15 12.89C685.86 12.89 684.03 13.57 682.74 14.9C681.46 16.23 680.81 18.06 680.81 20.37C680.81 22.53 681.46 24.29 682.72 25.57C683.98 26.83 685.69 27.48 687.83 27.48C690.07 27.48 691.85 26.8 693.14 25.45C694.45 24.09 695.07 22.28 695.07 20.05C695.07 17.84 694.47 16.08 693.24 14.8C692.05 13.52 690.32 12.89 688.15 12.89ZM690.75 23.59C690.14 24.37 689.19 24.74 688 24.74C686.8 24.74 685.86 24.37 685.19 23.54C684.51 22.76 684.18 21.63 684.18 20.2C684.18 18.72 684.53 17.59 685.19 16.78C685.86 15.98 686.8 15.58 687.98 15.58C689.11 15.58 690.04 15.95 690.7 16.73C691.35 17.51 691.7 18.64 691.7 20.12C691.7 21.63 691.38 22.81 690.75 23.59ZM712.56 15.88L712.56 13.19L709.27 13.19L709.27 9.07L709.17 9.1L706.05 10.03L705.97 10.05L705.97 13.19L701.04 13.19L701.04 11.44C701.04 10.63 701.24 10 701.59 9.6C701.94 9.2 702.47 9 703.13 9C703.58 9 704.06 9.1 704.59 9.33L704.71 9.4L704.71 6.56L704.64 6.54C704.18 6.39 703.58 6.29 702.8 6.29C701.82 6.29 700.96 6.51 700.18 6.89C699.4 7.32 698.82 7.89 698.4 8.67C697.97 9.43 697.74 10.28 697.74 11.26L697.74 13.19L695.45 13.19L695.45 15.85L697.74 15.85L697.74 27.1L701.04 27.1L701.04 15.88L705.97 15.88L705.97 23.04C705.97 25.97 707.35 27.45 710.12 27.45C710.57 27.45 711.05 27.38 711.51 27.3C711.98 27.2 712.34 27.08 712.54 26.98L712.56 26.95L712.56 24.27L712.44 24.37C712.24 24.49 712.06 24.59 711.76 24.67C711.51 24.74 711.28 24.77 711.1 24.77C710.45 24.77 710 24.62 709.67 24.24C709.37 23.89 709.22 23.31 709.22 22.46L709.22 15.88L712.56 15.88Z" fill="#737373" fill-opacity="1.000000" fill-rule="nonzero"/>
		<path id="Vector" d="M560.6 1.24L576.03 1.24L576.03 16.63L560.6 16.63L560.6 1.24Z" fill="#F25022" fill-opacity="1.000000" fill-rule="nonzero"/>
		<path id="Vector" d="M577.64 1.24L593.06 1.24L593.06 16.63L577.64 16.63L577.64 1.24Z" fill="#7FBA00" fill-opacity="1.000000" fill-rule="nonzero"/>
		<path id="Vector" d="M560.6 18.24L576.03 18.24L576.03 33.63L560.6 33.63L560.6 18.24Z" fill="#00A4EF" fill-opacity="1.000000" fill-rule="nonzero"/>
		<path id="Vector" d="M577.64 18.24L593.06 18.24L593.06 33.63L577.64 33.63L577.64 18.24Z" fill="#FFB900" fill-opacity="1.000000" fill-rule="nonzero"/>
	</g>
	<rect id="Walmart Logo" rx="-0.500000" width="137.282822" height="31.390572" transform="translate(792.823242 1.745789)" fill="#FFFFFF" fill-opacity="0"/>
	<g clip-path="url(#clip46_1005)">
		<g opacity="0.800000">
			<path id="Shape" d="M841.53 12.76L841.53 14.6L841.59 14.6C842.25 13.61 843.34 12.46 845.77 12.46C847.66 12.46 849.12 13.42 849.74 14.87L849.79 14.87C850.32 14.14 850.93 13.58 851.61 13.19C852.42 12.72 853.32 12.45 854.45 12.45C857.01 12.45 859.28 14.12 859.28 18.32L859.28 26.28L855.38 26.28L855.38 18.87C855.38 16.75 854.61 15.52 853.01 15.52C851.84 15.52 850.99 16.25 850.66 17.16C850.55 17.48 850.5 17.9 850.5 18.26L850.5 26.29L846.6 26.29L846.6 18.57C846.6 16.77 845.86 15.51 844.28 15.51C843.02 15.51 842.23 16.45 841.91 17.25C841.77 17.59 841.73 17.98 841.73 18.35L841.73 26.28L837.82 26.28L837.82 12.76L841.53 12.76ZM879.42 12.76L879.42 15.31L879.53 15.31C880.25 13.36 881.95 12.46 883.44 12.46C883.82 12.46 884.02 12.49 884.33 12.54L884.33 16.08C883.97 16.04 883.64 15.99 883.17 15.99C881.48 15.99 880.3 16.91 880 18.36C879.94 18.66 879.91 18.99 879.91 19.36L879.91 26.29L875.91 26.29L875.91 12.76L879.42 12.76ZM889.77 8.28L889.77 12.54L893.15 12.54L893.15 15.98L889.77 15.98L889.77 21.06C889.77 22.71 890.21 23.5 891.53 23.5C892.15 23.5 892.61 23.43 893.01 23.34L893.06 26.19C892.53 26.38 891.4 26.58 890.25 26.58C888.9 26.58 887.77 26.14 887.08 25.45C886.3 24.67 885.94 23.39 885.94 21.56L885.94 8.28L889.77 8.28ZM835.1 26.28L831.22 26.28L831.22 8.28L835.1 8.28L835.1 26.28ZM824.74 21.45C824.74 21.7 824.72 21.96 824.65 22.18C824.34 23.12 823.31 23.91 822.03 23.91C820.95 23.91 820.1 23.34 820.1 22.13C820.1 20.27 822.27 19.76 824.74 19.77L824.74 21.45L824.74 21.45ZM828.62 18.22C828.62 15.15 827.23 12.46 822.53 12.46C820.12 12.46 818.2 13.09 817.16 13.66L817.92 16.12C818.87 15.56 820.4 15.09 821.84 15.09C824.23 15.08 824.62 16.36 824.62 17.18L824.62 17.37C819.41 17.36 816.13 19.06 816.13 22.51C816.13 24.62 817.8 26.59 820.71 26.59C822.5 26.59 823.99 25.92 824.89 24.84L824.98 24.84C824.98 24.84 825.57 27.18 828.85 26.29C828.67 25.31 828.62 24.28 828.62 23.03L828.62 18.22L828.62 18.22ZM796.61 8.28C797.01 10.19 798.15 15.72 798.15 15.72C798.63 17.99 799.07 20.38 799.4 22.26L799.46 22.26C799.79 20.26 800.3 18.36 800.84 16.01L802.76 8.28L807.01 8.28L808.81 16.21C809.28 18.42 809.66 20.12 809.95 22.17L810.01 22.17C810.33 20.1 810.76 18.33 811.22 16.06L812.95 8.28L817.03 8.28L811.97 26.28C808.75 26.94 807.52 25.72 807.07 23.79C806.63 21.85 805.77 18.17 805.77 18.17C805.33 16.15 804.98 14.73 804.74 12.66L804.68 12.66C804.33 14.71 803.97 16.15 803.44 18.17L801.32 26.29C798.03 26.9 796.89 25.99 796.26 23.51C795.71 21.38 792.32 8.29 792.32 8.29L796.61 8.29L796.61 8.28ZM869.43 21.45C869.43 21.7 869.41 21.96 869.34 22.18C869.03 23.12 868 23.91 866.72 23.91C865.64 23.91 864.79 23.34 864.79 22.13C864.79 20.27 866.96 19.76 869.44 19.77L869.44 21.45L869.43 21.45ZM873.31 18.22C873.31 15.15 871.92 12.46 867.22 12.46C864.81 12.46 862.89 13.09 861.85 13.66L862.61 16.12C863.56 15.56 865.09 15.09 866.53 15.09C868.91 15.08 869.31 16.36 869.31 17.18L869.31 17.37C864.11 17.36 860.82 19.06 860.82 22.51C860.82 24.62 862.5 26.59 865.4 26.59C867.19 26.59 868.69 25.92 869.58 24.84L869.67 24.84C869.67 24.84 870.27 27.18 873.54 26.29C873.37 25.31 873.31 24.28 873.31 23.03L873.31 18.22Z" fill="#041E42" fill-opacity="1.000000" fill-rule="nonzero"/>
		</g>
		<path id="Shape" d="M908.9 20.08C909.28 20.74 909.26 21.47 908.85 21.81L901.78 26.69C901.05 27.11 899.95 26.6 899.32 25.54C898.69 24.47 898.8 23.28 899.54 22.86L907.36 19.27C907.85 19.08 908.52 19.43 908.9 20.08ZM918.2 20.08C918.59 19.43 919.25 19.09 919.74 19.26L927.56 22.85C928.3 23.27 928.41 24.46 927.78 25.53C927.15 26.6 926.05 27.1 925.32 26.69L918.25 21.8C917.85 21.47 917.82 20.74 918.2 20.08ZM913.55 22.73C914.32 22.73 914.95 23.12 915.04 23.63L915.8 32.1C915.8 32.94 914.8 33.63 913.55 33.63C912.3 33.63 911.31 32.94 911.31 32.1L912.06 23.63C912.15 23.12 912.78 22.73 913.55 22.73ZM918.25 13.07L925.32 8.18C926.05 7.76 927.15 8.27 927.78 9.34C928.41 10.41 928.3 11.6 927.56 12.02L919.74 15.61C919.25 15.79 918.58 15.45 918.2 14.79C917.82 14.13 917.85 13.4 918.25 13.07ZM907.36 15.61L899.54 12.02C898.81 11.6 898.7 10.41 899.32 9.34C899.95 8.27 901.05 7.76 901.78 8.18L908.85 13.07C909.26 13.39 909.28 14.13 908.9 14.79C908.52 15.45 907.85 15.79 907.36 15.61ZM912.06 11.24L911.31 2.77C911.31 1.93 912.3 1.24 913.55 1.24C914.8 1.24 915.8 1.93 915.8 2.77L915.04 11.24C914.95 11.75 914.32 12.14 913.55 12.14C912.78 12.14 912.15 11.75 912.06 11.24ZM929.69 26.66L929.69 26.44L929.89 26.44C929.95 26.44 929.99 26.49 929.99 26.55C929.99 26.61 929.95 26.66 929.89 26.66L929.69 26.66ZM929.53 27.04C929.53 27.06 929.55 27.08 929.58 27.08L929.66 27.08C929.68 27.08 929.7 27.06 929.7 27.04L929.7 26.8L929.84 26.8L929.94 27.05C929.95 27.07 929.96 27.08 929.98 27.08L930.08 27.08C930.11 27.08 930.13 27.05 930.12 27.02C930.08 26.95 930.04 26.87 930 26.79C930.07 26.77 930.17 26.7 930.17 26.55C930.17 26.39 930.03 26.29 929.9 26.29L929.58 26.29C929.56 26.29 929.53 26.32 929.53 26.34L929.53 27.04ZM929.19 26.69C929.19 26.35 929.47 26.07 929.82 26.07C930.17 26.07 930.45 26.34 930.45 26.69C930.45 27.03 930.17 27.31 929.82 27.31C929.47 27.31 929.19 27.03 929.19 26.69ZM929.04 26.69C929.04 27.11 929.38 27.46 929.82 27.46C930.25 27.46 930.6 27.11 930.6 26.69C930.6 26.27 930.25 25.92 929.82 25.92C929.38 25.92 929.04 26.27 929.04 26.69Z" fill="#FFC124" fill-opacity="1.000000" fill-rule="nonzero"/>
	</g>
	<rect id="FedEx Logo" rx="-0.500000" width="98.663300" height="28.898991" transform="translate(1010.836670 2.991577)" fill="#FFFFFF" fill-opacity="0"/>
	<g clip-path="url(#clip46_1008)">
		<path id="polygon19" d="M1084.44 31.49L1092.76 22.29L1084.44 13.08L1093.22 13.08L1097.34 17.55L1101.3 13.08L1109.76 13.08L1101.49 22.25L1109.88 31.49L1101.06 31.49L1096.99 26.98L1092.94 31.49L1084.44 31.49Z" fill="#FF6600" fill-opacity="1.000000" fill-rule="nonzero"/>
		<path id="polygon21" d="M1084.44 8.95L1075.04 8.95L1075.04 13.08L1084.44 13.08L1084.44 19.3L1075.04 19.3L1075.04 25.01L1084.44 25.01L1084.44 31.49L1068.12 31.49L1068.12 2.49L1084.44 2.49L1084.44 8.95Z" fill="#FF6600" fill-opacity="1.000000" fill-rule="nonzero"/>
		<path id="path23" d="M1061.23 2.49L1061.23 14.36L1061.15 14.36C1059.63 12.63 1057.72 12.03 1055.51 12.03C1050.98 12.03 1047.56 15.06 1046.37 19.08C1045.01 14.65 1041.48 11.94 1036.26 11.94C1032.02 11.94 1028.67 13.82 1026.92 16.88L1026.92 13.08L1018.15 13.08L1018.15 8.95L1027.72 8.95L1027.72 2.49L1010.34 2.49L1010.34 31.49L1018.15 31.49L1018.15 19.3L1025.93 19.3C1025.71 20.19 1025.59 21.15 1025.59 22.17C1025.59 28.22 1030.28 32.46 1036.26 32.46C1041.29 32.46 1044.61 30.13 1046.36 25.89L1039.66 25.89C1038.76 27.16 1038.06 27.54 1036.26 27.54C1034.16 27.54 1032.35 25.73 1032.35 23.59L1045.99 23.59C1046.57 28.4 1050.38 32.54 1055.59 32.54C1057.84 32.54 1059.89 31.45 1061.15 29.61L1061.23 29.61L1061.23 31.49L1068.12 31.49L1068.12 2.49L1061.23 2.49ZM1032.56 19.39C1033 17.54 1034.44 16.34 1036.26 16.34C1038.25 16.34 1039.63 17.51 1039.99 19.39C1040.14 19.39 1032.56 19.39 1032.56 19.39ZM1057.05 27.07C1054.51 27.07 1052.93 24.74 1052.93 22.31C1052.93 19.7 1054.3 17.2 1057.05 17.2C1059.89 17.2 1061.03 19.7 1061.03 22.31C1061.03 24.78 1059.82 27.07 1057.05 27.07Z" fill="#652C8F" fill-opacity="1.000000" fill-rule="nonzero"/>
	</g>
</svg>
